<?xml version='1.0' encoding='UTF-8'?>
<svg viewBox="-2 -4.8475 32 32" xmlns="http://www.w3.org/2000/svg" xmlns:xlink="http://www.w3.org/1999/xlink">
  <g id="Layer_1" transform="translate(-0.9333, -3.7341)">
    <g transform="matrix(0.9333, 0, 0, 0.9333, 0, 0)">
      <g transform="matrix(1.0714, 0, 0, 1.0714, 0, 0)">
        <g transform="matrix(0.9333, 0, 0, 0.9333, 0, 0)">
          <g id="icon">
            <path d="M2.91, 27.9C2.358, 27.9 1.879, 27.715 1.487, 27.351C1.169, 27.073 0.999, 26.685 0.999, 26.233C0.999, 25.851 1.138, 25.517 1.413, 25.242C1.681, 24.974 2.012, 24.838 2.396, 24.838C2.704, 24.838 2.97, 24.947 3.185, 25.162C3.404, 25.38 3.52, 25.652 3.52, 25.949C3.52, 26.158 3.461, 26.353 3.344, 26.533C3.531, 26.494 3.73, 26.409 3.937, 26.282C4.245, 26.092 4.526, 25.8 4.773, 25.413C5.032, 25.007 5.284, 24.399 5.522, 23.608C5.625, 23.271 5.911, 22.126 6.371, 20.205L8.232, 12.348L6.957, 12.348C6.786, 12.348 6.627, 12.266 6.521, 12.124C6.417, 11.985 6.377, 11.805 6.411, 11.63L6.501, 11.169C6.555, 10.893 6.777, 10.698 7.042, 10.695C7.716, 10.687 7.997, 10.618 8.104, 10.578C8.286, 10.509 8.461, 10.369 8.623, 10.16C8.811, 9.919 9.068, 9.442 9.387, 8.741C9.846, 7.728 10.295, 6.927 10.723, 6.36C11.316, 5.586 11.951, 4.996 12.612, 4.604C13.288, 4.203 13.942, 4 14.555, 4C15.226, 4 15.781, 4.194 16.202, 4.577C16.642, 4.976 16.864, 5.431 16.864, 5.927C16.864, 6.324 16.74, 6.665 16.495, 6.942C16.243, 7.227 15.92, 7.371 15.535, 7.371C15.197, 7.371 14.912, 7.258 14.689, 7.034C14.463, 6.807 14.343, 6.518 14.343, 6.198C14.343, 5.994 14.407, 5.769 14.539, 5.511C14.572, 5.447 14.594, 5.398 14.61, 5.362C14.582, 5.357 14.545, 5.353 14.497, 5.353C14.114, 5.353 13.764, 5.488 13.458, 5.754C12.997, 6.15 12.573, 6.791 12.198, 7.659C12.021, 8.078 11.699, 9.099 11.242, 10.693L12.173, 10.693C12.35, 10.693 12.513, 10.78 12.619, 10.931C12.723, 11.078 12.757, 11.265 12.712, 11.444L12.596, 11.904C12.531, 12.164 12.309, 12.345 12.057, 12.345L10.826, 12.345L9.645, 17.435C9.086, 19.834 8.514, 21.72 7.944, 23.04C7.12, 24.938 6.21, 26.276 5.238, 27.016C4.474, 27.603 3.691, 27.9 2.91, 27.9zM15.096, 26.528C14.884, 26.528 14.693, 26.403 14.598, 26.202C13.935, 24.812 13.448, 23.56 13.15, 22.481C12.907, 21.587 12.785, 20.673 12.785, 19.765C12.785, 17.665 13.241, 15.754 14.139, 14.086C15.207, 12.111 16.94, 10.164 19.29, 8.301C19.387, 8.224 19.502, 8.184 19.623, 8.184C19.809, 8.184 19.983, 8.282 20.087, 8.447L20.112, 8.486C20.276, 8.746 20.222, 9.1 19.989, 9.292C19.006, 10.101 18.189, 11.013 17.561, 12.004C16.736, 13.303 16.05, 14.899 15.522, 16.748C14.994, 18.597 14.726, 20.298 14.726, 21.805C14.726, 22.893 15.026, 24.202 15.619, 25.694C15.736, 25.989 15.616, 26.327 15.347, 26.465L15.336, 26.47C15.261, 26.509 15.18, 26.528 15.096, 26.528zM24.154, 26.516C23.978, 26.516 23.816, 26.43 23.709, 26.281L23.699, 26.267C23.61, 26.142 23.571, 25.987 23.589, 25.831C23.608, 25.673 23.683, 25.533 23.801, 25.435C24.781, 24.622 25.597, 23.711 26.224, 22.727C27.049, 21.427 27.735, 19.83 28.262, 17.98C28.79, 16.128 29.058, 14.425 29.058, 12.918C29.058, 11.827 28.756, 10.515 28.161, 9.018C28.05, 8.738 28.152, 8.415 28.398, 8.266L28.417, 8.254C28.501, 8.203 28.596, 8.176 28.692, 8.176C28.903, 8.176 29.094, 8.301 29.19, 8.501C29.85, 9.88 30.333, 11.126 30.624, 12.204C30.872, 13.097 30.998, 14.01 30.998, 14.917C30.998, 17.023 30.542, 18.934 29.644, 20.597C28.569, 22.58 26.834, 24.531 24.486, 26.396C24.39, 26.475 24.275, 26.516 24.154, 26.516zM22.889, 22.658C22.556, 22.658 22.09, 22.515 21.761, 21.833C21.682, 21.674 21.545, 21.271 21.185, 19.59C20.486, 20.821 19.892, 21.659 19.421, 22.084C18.993, 22.465 18.56, 22.657 18.135, 22.657C17.803, 22.657 17.5, 22.528 17.234, 22.275C17.008, 22.05 16.894, 21.758 16.894, 21.405C16.894, 21.085 16.996, 20.811 17.198, 20.592C17.4, 20.373 17.66, 20.258 17.952, 20.258C18.239, 20.258 18.528, 20.397 18.811, 20.67C18.844, 20.702 18.872, 20.726 18.893, 20.744C18.898, 20.74 18.904, 20.735 18.909, 20.729C19.078, 20.581 19.394, 20.209 19.951, 19.268C20.356, 18.585 20.64, 18.065 20.795, 17.723C20.329, 15.743 20.262, 15.493 20.253, 15.463C20.146, 15.135 20.015, 14.908 19.865, 14.789C19.722, 14.676 19.474, 14.616 19.148, 14.616C19.067, 14.616 18.976, 14.619 18.877, 14.624L18.857, 14.625C18.702, 14.625 18.56, 14.562 18.454, 14.448C18.349, 14.336 18.292, 14.187 18.292, 14.029C18.292, 13.738 18.485, 13.491 18.752, 13.44L20.861, 13.037C20.893, 13.031 20.926, 13.028 20.96, 13.028C21.119, 13.028 21.271, 13.1 21.377, 13.227C21.656, 13.56 21.873, 13.901 22.024, 14.24C22.102, 14.408 22.201, 14.717 22.332, 15.203L22.622, 14.73C22.849, 14.392 23.121, 14.073 23.433, 13.778C23.754, 13.475 24.049, 13.261 24.308, 13.142C24.498, 13.056 24.706, 13.013 24.927, 13.013C25.279, 13.013 25.57, 13.124 25.793, 13.342C26.022, 13.566 26.143, 13.856 26.143, 14.18C26.143, 14.543 26.06, 14.803 25.89, 14.975C25.648, 15.209 25.369, 15.327 25.059, 15.327C24.889, 15.327 24.709, 15.289 24.524, 15.214C24.205, 15.097 24.117, 15.09 24.113, 15.09C24.115, 15.09 24.042, 15.1 23.875, 15.253C23.567, 15.534 23.185, 16.09 22.742, 16.908L23.424, 20.011C23.518, 20.435 23.58, 20.622 23.61, 20.699C23.638, 20.681 23.675, 20.654 23.723, 20.611C23.97, 20.387 24.19, 20.094 24.378, 19.74C24.478, 19.552 24.665, 19.435 24.866, 19.435C24.955, 19.435 25.044, 19.458 25.123, 19.502L25.138, 19.51C25.271, 19.584 25.371, 19.715 25.414, 19.87C25.456, 20.025 25.439, 20.187 25.366, 20.327C24.99, 21.044 24.515, 21.655 23.956, 22.144C23.554, 22.491 23.207, 22.658 22.889, 22.658z" fill="#727272" fill-opacity="1" class="Black" />
          </g>
        </g>
      </g>
    </g>
  </g>
</svg>