<?xml version='1.0' encoding='UTF-8'?>
<svg viewBox="-2 -2 32 32" xmlns="http://www.w3.org/2000/svg" xmlns:xlink="http://www.w3.org/1999/xlink">
  <g id="Layer_1" transform="translate(-0.9655, -0.9655)">
    <g transform="matrix(0.9655, 0, 0, 0.9655, 0, 0)">
      <g transform="matrix(1.0358, 0, 0, 1.0358, 0, 0)">
        <g transform="matrix(0.9655, 0, 0, 0.9655, 0, 0)">
          <g id="icon">
            <path d="M15.5, 30C23.5081, 30 30, 23.5081 30, 15.5C30, 7.4919 23.5081, 1 15.5, 1C7.4919, 1 1, 7.4919 1, 15.5C1, 23.5081 7.4919, 30 15.5, 30zM17, 18.6C17, 18.8209 16.8209, 19 16.6, 19L14.4, 19C14.1791, 19 14, 18.8209 14, 18.6L14, 6.4C14, 6.1791 14.1791, 6 14.4, 6L16.6, 6C16.8209, 6 17, 6.1791 17, 6.4L17, 18.6zM17, 24.6C17, 24.8209 16.8209, 25 16.6, 25L14.4, 25C14.1791, 25 14, 24.8209 14, 24.6L14, 22.4C14, 22.1791 14.1791, 22 14.4, 22L16.6, 22C16.8209, 22 17, 22.1791 17, 22.4L17, 24.6z" fill="#D11C1C" fill-opacity="1" class="Red" fill-rule="evenodd" />
          </g>
        </g>
      </g>
    </g>
  </g>
  <g id="Layer_1" transform="translate(-0.9655, -0.9655)">
    <g transform="matrix(0.9655, 0, 0, 0.9655, 0, 0)">
      <g transform="matrix(1.0358, 0, 0, 1.0358, 0, 0)">
        <g transform="matrix(0.9655, 0, 0, 0.9655, 0, 0)">
          <g id="icon">
            <path d="M14.4, 6L16.6, 6C16.8209, 6 17, 6.1791 17, 6.4L17, 18.6C17, 18.8209 16.8209, 19 16.6, 19L14.4, 19C14.1791, 19 14, 18.8209 14, 18.6L14, 6.4C14, 6.1791 14.1791, 6 14.4, 6zM14.4, 25L16.6, 25C16.8209, 25 17, 24.8209 17, 24.6L17, 22.4C17, 22.1791 16.8209, 22 16.6, 22L14.4, 22C14.1791, 22 14, 22.1791 14, 22.4L14, 24.6C14, 24.8209 14.1791, 25 14.4, 25z" fill="#FFFFFF" fill-opacity="1" class="White" fill-rule="evenodd" />
          </g>
        </g>
      </g>
    </g>
  </g>
</svg>