<?xml version='1.0' encoding='UTF-8'?>
<svg viewBox="-2.4675 -2 32 32" xmlns="http://www.w3.org/2000/svg" xmlns:xlink="http://www.w3.org/1999/xlink">
  <g id="Layer_1" transform="translate(-0.9341, -0.9333)">
    <g transform="matrix(0.9333, 0, 0, 0.9333, 0, 0)">
      <g transform="matrix(1.0714, 0, 0, 1.0714, 0, 0)">
        <g transform="matrix(0.9333, 0, 0, 0.9333, 0, 0)">
          <g id="icon">
            <path d="M29.1, 8.8C27.6165, 7.3165 22.499, 2.199 22.1998, 1.8998C21.8496, 1.5496 21.5375, 1.5 21.3, 1.5C21.0625, 1.5 7.4, 1.5 7.4, 1.5C6.7649, 1.5 6.5, 1.7594 6.5, 2.4L6.5, 8L18.0625, 8C19.1326, 8 20, 8.8674 20, 9.9375L20, 25.0625C20, 26.1326 19.1326, 27 18.0625, 27L6.5, 27L6.5, 29.6C6.5, 30.2406 6.7649, 30.5 7.4, 30.5L28.6, 30.5C29.2351, 30.5 29.5, 30.2406 29.5, 29.6C29.5, 29.6 29.5, 10.1125 29.5, 9.8C29.5, 9.35 29.3527, 9.0527 29.1, 8.8z" fill="#FFFFFF" fill-opacity="1" class="White" fill-rule="evenodd" />
          </g>
        </g>
      </g>
    </g>
  </g>
  <g id="Layer_1" transform="translate(-0.9341, -0.9333)">
    <g transform="matrix(0.9333, 0, 0, 0.9333, 0, 0)">
      <g transform="matrix(1.0714, 0, 0, 1.0714, 0, 0)">
        <g transform="matrix(0.9333, 0, 0, 0.9333, 0, 0)">
          <g id="icon">
            <path d="M29.4535, 8.4464L22.5534, 1.5462C22.1858, 1.1787 21.7758, 1 21.3, 1L7.4, 1C6.4841, 1 6, 1.4841 6, 2.4L6, 8L7, 8L7, 2.4C7, 2.0374 7.0374, 2 7.4, 2L21.3, 2C21.4417, 2 21.6124, 2.0196 21.8462, 2.2534L28.7464, 9.1536C28.8986, 9.3058 29, 9.4739 29, 9.8L29, 29.6C29, 29.9626 28.9626, 30 28.6, 30L7.4, 30C7.0374, 30 7, 29.9626 7, 29.6L7, 27L6, 27L6, 29.6C6, 30.5159 6.4841, 31 7.4, 31L28.6, 31C29.5159, 31 30, 30.5159 30, 29.6L30, 9.8C30, 9.2494 29.8264, 8.8192 29.4535, 8.4464z" fill="#727272" fill-opacity="1" class="Black" />
          </g>
        </g>
      </g>
    </g>
  </g>
  <g id="Layer_1" transform="translate(-0.9341, -0.9333)">
    <g transform="matrix(0.9333, 0, 0, 0.9333, 0, 0)">
      <g transform="matrix(1.0714, 0, 0, 1.0714, 0, 0)">
        <g transform="matrix(0.9333, 0, 0, 0.9333, 0, 0)">
          <g id="icon">
            <path d="M29.2, 10L22.3892, 10C22.3132, 10 22.2412, 9.9831 22.1767, 9.9527C21.6218, 9.7956 21, 9.2613 21, 8.5667L21, 1.8L22, 1.8L22, 8.5667C22, 8.7695 22.3584, 8.9885 22.4944, 9L29.2, 9L29.2, 10z" fill="#727272" fill-opacity="1" class="Black" />
          </g>
        </g>
      </g>
    </g>
  </g>
  <g id="Layer_1" transform="translate(-0.9341, -0.9333)">
    <g transform="matrix(0.9333, 0, 0, 0.9333, 0, 0)">
      <g transform="matrix(1.0714, 0, 0, 1.0714, 0, 0)">
        <g transform="matrix(0.9333, 0, 0, 0.9333, 0, 0)">
          <g id="icon">
            <g>
              <path d="M18, 25.5L2, 25.5C1.7239, 25.5 1.5, 25.2761 1.5, 25L1.5, 13.5L18.5, 13.5L18.5, 25C18.5, 25.2761 18.2761, 25.5 18, 25.5z" fill="#FFFFFF" fill-opacity="1" class="White" />
            </g>
          </g>
        </g>
      </g>
    </g>
  </g>
  <g id="Layer_1" transform="translate(-0.9341, -0.9333)">
    <g transform="matrix(0.9333, 0, 0, 0.9333, 0, 0)">
      <g transform="matrix(1.0714, 0, 0, 1.0714, 0, 0)">
        <g transform="matrix(0.9333, 0, 0, 0.9333, 0, 0)">
          <g id="icon">
            <g>
              <path d="M18, 21L13, 21L13, 18L18, 18C18.2761, 18 18.5, 17.7761 18.5, 17.5C18.5, 17.2239 18.2761, 17 18, 17L13, 17L13, 14C13, 13.7239 12.7761, 13.5 12.5, 13.5C12.2239, 13.5 12, 13.7239 12, 14L12, 17L8, 17L8, 14C8, 13.7239 7.7761, 13.5 7.5, 13.5C7.2239, 13.5 7, 13.7239 7, 14L7, 17L2, 17C1.7239, 17 1.5, 17.2239 1.5, 17.5C1.5, 17.7761 1.7239, 18 2, 18L7, 18L7, 21L2, 21C1.7239, 21 1.5, 21.2239 1.5, 21.5C1.5, 21.7761 1.7239, 22 2, 22L7, 22L7, 25C7, 25.2761 7.2239, 25.5 7.5, 25.5C7.7761, 25.5 8, 25.2761 8, 25L8, 22L12, 22L12, 25C12, 25.2761 12.2239, 25.5 12.5, 25.5C12.7761, 25.5 13, 25.2761 13, 25L13, 22L18, 22C18.2761, 22 18.5, 21.7761 18.5, 21.5C18.5, 21.2239 18.2761, 21 18, 21zM8, 21L8, 18L12, 18L12, 21L8, 21z" fill="#727272" fill-opacity="1" class="Black" />
            </g>
          </g>
        </g>
      </g>
    </g>
  </g>
  <g id="Layer_1" transform="translate(-0.9341, -0.9333)">
    <g transform="matrix(0.9333, 0, 0, 0.9333, 0, 0)">
      <g transform="matrix(1.0714, 0, 0, 1.0714, 0, 0)">
        <g transform="matrix(0.9333, 0, 0, 0.9333, 0, 0)">
          <g id="icon">
            <g>
              <path d="M18, 26L2, 26C1.4486, 26 1, 25.5514 1, 25L1, 13L19, 13L19, 25C19, 25.5514 18.5514, 26 18, 26zM2, 14L2, 25L18, 25L18, 14L2, 14z" fill="#727272" fill-opacity="1" class="Black" />
            </g>
          </g>
        </g>
      </g>
    </g>
  </g>
  <g id="Layer_1" transform="translate(-0.9341, -0.9333)">
    <g transform="matrix(0.9333, 0, 0, 0.9333, 0, 0)">
      <g transform="matrix(1.0714, 0, 0, 1.0714, 0, 0)">
        <g transform="matrix(0.9333, 0, 0, 0.9333, 0, 0)">
          <g id="icon">
            <g>
              <path d="M19, 14L1, 14L1, 10.4C1, 9.6268 1.6268, 9 2.4, 9L17.6, 9C18.3732, 9 19, 9.6268 19, 10.4L19, 14z" fill="#1177D7" fill-opacity="1" class="Blue" />
            </g>
          </g>
        </g>
      </g>
    </g>
  </g>
</svg>