<?xml version='1.0' encoding='UTF-8'?>
<svg viewBox="-2.015 -2 32 32" xmlns="http://www.w3.org/2000/svg" xmlns:xlink="http://www.w3.org/1999/xlink">
  <g id="Layer_1" transform="translate(-0.939, -0.9334)">
    <g transform="matrix(0.9333, 0, 0, 0.9333, 0, 0)">
      <g transform="matrix(1.0715, 0, 0, 1.0715, 0, 0)">
        <g transform="matrix(0.9333, 0, 0, 0.9333, 0, 0)">
          <g id="icon">
            <path d="M27.5048, 4.4686C22.8736, -0.1626 15.3576, -0.1552 10.7173, 4.485C6.7383, 8.464 6.1693, 14.556 9.007, 19.132L1.4034, 26.7356C0.8698, 27.2692 0.8698, 28.1344 1.4034, 28.668L3.3358, 30.6004C3.8694, 31.134 4.7346, 31.134 5.2682, 30.6004L12.8788, 22.9898C17.4505, 25.8012 23.5203, 25.2243 27.4884, 21.2561C32.1286, 16.6157 32.1359, 9.0998 27.5048, 4.4686zM25.2334, 19.0012C21.8566, 22.378 16.3818, 22.378 13.005, 19.0012C9.6282, 15.6244 9.6282, 10.1495 13.005, 6.7727C16.3818, 3.3959 21.8567, 3.3959 25.2334, 6.7727C28.6102, 10.1495 28.6102, 15.6244 25.2334, 19.0012z" fill="#1177D7" fill-opacity="1" class="Blue" fill-rule="evenodd" />
          </g>
        </g>
      </g>
    </g>
  </g>
</svg>