<?xml version='1.0' encoding='UTF-8'?>
<svg viewBox="-2.0525 -2 32 32" xmlns="http://www.w3.org/2000/svg" xmlns:xlink="http://www.w3.org/1999/xlink">
  <g id="Layer_1" transform="translate(-1.0226, -0.9188)">
    <g transform="matrix(0.9328, 0, 0, 0.9328, 0, 0)">
      <g transform="matrix(1.0721, 0, 0, 1.0721, 0, 0)">
        <g transform="matrix(0.9328, 0, 0, 0.9328, 0, 0)">
          <g id="icon">
            <path d="M26.9278, 17.0385L30.6565, 19.1211C30.9397, 19.2793 31.069, 19.6175 30.9636, 19.9243L30.462, 21.3836C30.3601, 21.68 30.0664, 21.8663 29.7548, 21.832L25.5326, 21.3677L24.173, 23.1924L25.9758, 26.8689C26.1225, 27.1681 26.0272, 27.5295 25.7521, 27.7175L24.3304, 28.689C24.0731, 28.8648 23.7286, 28.8401 23.499, 28.6295L20.3804, 25.7684L18.2337, 26.484L17.4482, 30.4619C17.3849, 30.7827 17.0993, 31.011 16.7724, 31.0021L14.9807, 30.9537C14.6708, 30.9453 14.407, 30.7255 14.3429, 30.4222L13.5109, 26.4841L11.5073, 25.7685L8.468, 28.5358C8.2291, 28.7533 7.869, 28.7695 7.6115, 28.5742L6.2235, 27.5213C5.9725, 27.3309 5.8879, 26.9913 6.0204, 26.7054L7.7148, 23.0493L6.5341, 21.3319L2.3622, 21.8258C2.0443, 21.8634 1.7441, 21.671 1.6456, 21.3664L1.1262, 19.7609C1.0279, 19.457 1.1577, 19.1259 1.4363, 18.9697L5.1388, 16.8952L5.0672, 15.0347L1.4341, 12.9583C1.1567, 12.7997 1.0297, 12.4674 1.1308, 12.1643L1.6452, 10.621C1.7445, 10.3232 2.0371, 10.1341 2.3494, 10.1661L6.5698, 10.5982L7.8578, 8.8093L6.0541, 5.2443C5.9043, 4.9482 5.9937, 4.587 6.2643, 4.395L7.7651, 3.3299C8.025, 3.1455 8.3787, 3.1695 8.6113, 3.3873L11.6504, 6.2335L13.7255, 5.5895L14.5749, 1.5183C14.6397, 1.2075 14.9137, 0.9849 15.2311, 0.9849L17.0259, 0.9849C17.3441, 0.9849 17.6184, 1.2085 17.6825, 1.5202L18.5197, 5.5896L20.5233, 6.3052L23.5816, 3.5217C23.8092, 3.3146 24.1486, 3.289 24.4047, 3.4597L25.8261, 4.4073C26.1033, 4.5921 26.2028, 4.9526 26.0594, 5.2534L24.28, 8.9886L25.4607, 10.6702L29.6677, 10.1755C29.9832, 10.1384 30.2815, 10.3279 30.3819, 10.6293L30.8961, 12.1719C30.9961, 12.4718 30.873, 12.8007 30.6007, 12.9613L26.9634, 15.1067L26.9278, 17.0385zM16.0653, 10.7713C13.2133, 10.7713 10.9013, 13.0833 10.9013, 15.9353C10.9013, 18.7873 13.2133, 21.0993 16.0653, 21.0993C18.9173, 21.0993 21.2293, 18.7873 21.2293, 15.9353C21.2293, 13.0833 18.9173, 10.7713 16.0653, 10.7713z" fill="#727272" fill-opacity="1" class="Black" fill-rule="evenodd" />
          </g>
        </g>
      </g>
    </g>
  </g>
</svg>