<?xml version='1.0' encoding='UTF-8'?>
<svg viewBox="0 -1.0311 32 31.9986" xmlns="http://www.w3.org/2000/svg" xmlns:xlink="http://www.w3.org/1999/xlink">
  <g transform="translate(0, 0)">
    <g transform="matrix(1.1429, 0, 0, 1.1429, 0, 0)">
      <g id="Layer_1" transform="translate(-0.9032, -2.7096)">
        <g transform="matrix(0.9032, 0, 0, 0.9032, 0, 0)">
          <g id="main">
            <g id="icon">
              <path d="M1, 26.9L1.088, 27.32L1.323, 27.67L1.662, 27.91L2.062, 28L17.75, 28L19.92, 25.85L19.58, 24.97L19.36, 24.05L19.26, 23.11L19.3, 22.15L19.38, 21.57L19.52, 21L19.93, 19.91L20.52, 18.9L20.87, 18.43L21.27, 18L21.78, 17.54L22.32, 17.13L22.9, 16.78L23.5, 16.49L24.13, 16.27L24.79, 16.1L25.46, 16L26.14, 15.97L26.82, 16L27.49, 16.1L28.14, 16.27L28.77, 16.49L29, 16.6L28.99, 10L1, 10zz" fill="#FFB115" class="Yellow" fill-rule="evenodd" />
            </g>
          </g>
        </g>
      </g>
    </g>
  </g>
  <g transform="translate(0, 0)">
    <g transform="matrix(1.1429, 0, 0, 1.1429, 0, 0)">
      <g id="Layer_1" transform="translate(-0.9032, -2.7096)">
        <g transform="matrix(0.9032, 0, 0, 0.9032, 0, 0)">
          <g id="main">
            <g id="icon">
              <path d="M1.733, 3.094L1.352, 3.352L1.094, 3.733L1, 4.2L1, 9L29, 9L29, 7.2L28.91, 6.733L28.65, 6.352L28.27, 6.094L27.8, 6L15.83, 6L15.44, 5.961L15.06, 5.848L14.72, 5.664L14.41, 5.414L12.59, 3.586L12.28, 3.336L11.94, 3.152L11.56, 3.039L11.17, 3L2.2, 3zz" fill="#FFB115" class="Yellow" fill-rule="evenodd" />
            </g>
          </g>
        </g>
      </g>
    </g>
  </g>
  <g transform="translate(0, 0)">
    <g transform="matrix(1.1429, 0, 0, 1.1429, 0, 0)">
      <g id="Layer_1" transform="translate(-0.9032, -2.7096)">
        <g transform="matrix(0.9032, 0, 0, 0.9032, 0, 0)">
          <g id="main">
            <g id="overlay">
              <path d="M30.2842, 18.697C27.9933, 16.3915 24.2753, 16.3951 21.9798, 18.7052C20.0011, 20.6964 19.727, 23.7507 21.156, 26.0327L17.2111, 29.9454C16.9556, 30.2025 16.9556, 30.6193 17.2111, 30.8763L18.1362, 31.8072C18.3916, 32.0643 18.8058, 32.0643 19.0613, 31.8072L23.0088, 27.8919C25.2749, 29.3201 28.3015, 29.0414 30.2762, 27.0541C32.5715, 24.7441 32.5751, 21.0025 30.2842, 18.697zM28.843, 25.6448C27.3301, 27.1673 24.8772, 27.1673 23.3643, 25.6448C21.8514, 24.1223 21.8514, 21.6538 23.3643, 20.1313C24.8772, 18.6088 27.3301, 18.6088 28.843, 20.1313C30.3559, 21.6538 30.3559, 24.1223 28.843, 25.6448z" fill="#1177D7" class="Blue" fill-rule="evenodd" />
            </g>
          </g>
        </g>
      </g>
    </g>
  </g>
</svg>