<?xml version='1.0' encoding='UTF-8'?>
<svg viewBox="-2 -2 32 32" xmlns="http://www.w3.org/2000/svg" xmlns:xlink="http://www.w3.org/1999/xlink">
  <g id="Layer_1" transform="translate(-2, -2.0012)">
    <g id="icon">
      <path d="M16.0293, 2.5414C23.4461, 2.5414 29.4586, 8.5539 29.4586, 15.9707C29.4586, 23.3875 23.4461, 29.4 16.0293, 29.4C8.6125, 29.4 2.6, 23.3875 2.6, 15.9707C2.6, 8.5539 8.6125, 2.5414 16.0293, 2.5414z" fill="#FFFFFF" fill-rule="evenodd" />
    </g>
  </g>
  <g id="Layer_1" transform="translate(-2, -2.0012)">
    <g id="icon">
      <path d="M16.552, 15.3119C16.4954, 13.325 16.1539, 6.8862 15.5526, 6.8838C14.8879, 6.8811 14.383, 14.8515 14.3789, 15.8773C14.3762, 16.5582 14.426, 16.9936 14.7596, 17.2107C14.9682, 17.5072 15.42, 17.5294 16.291, 17.5329C17.6312, 17.5383 24.5436, 17.1592 24.5463, 16.4946C24.5489, 15.8371 17.9901, 15.328 16.552, 15.3119z" fill="#727272" class="Black" fill-rule="evenodd" />
    </g>
  </g>
  <g id="Layer_1" transform="translate(-2, -2.0012)">
    <g id="icon">
      <path d="M16.1586, 2.0009C11.308, 1.9472 7.0186, 4.3611 4.4658, 8.0645L6.9374, 9.765C8.9336, 6.8691 12.2811, 4.9767 16.0698, 5.0003C22.0281, 5.0373 26.9154, 9.8846 26.9989, 15.8424C27.085, 21.9897 22.1276, 27 16, 27C9.9249, 27 5, 22.0751 5, 16C5, 15.737 5.0094, 15.4763 5.0277, 15.218C5.0429, 15.0026 4.8865, 14.8137 4.6718, 14.7908L2.4832, 14.5572C2.2585, 14.5332 2.0583, 14.6998 2.0411, 14.9251C2.014, 15.2799 2, 15.6383 2, 16C2, 23.732 8.268, 30 16, 30C23.7656, 30 30.0545, 23.6774 29.9996, 15.8991C29.9461, 8.2998 23.7576, 2.085 16.1586, 2.0009z" fill="#039C23" class="Green" />
    </g>
  </g>
  <g id="Layer_1" transform="translate(-2, -2.0012)">
    <g id="icon">
      <path d="M6.4, 8.6303L12.1364, 8.6204C12.402, 8.6198 12.5231, 8.9516 12.3195, 9.1223L10.2459, 10.86C10.1379, 10.9505 10.0015, 11.0001 9.8605, 11.0001L3.4, 11.0001C3.1791, 11.0001 3, 10.821 3, 10.6001L3, 4.2747C3, 4.1039 3.0728, 3.9412 3.2001, 3.8274L4.9265, 2.284C5.1096, 2.1203 5.4, 2.2502 5.4, 2.4957L5.4, 7.5" fill="#039C23" class="Green" />
    </g>
  </g>
</svg>