<?xml version='1.0' encoding='UTF-8'?>
<svg viewBox="0 -1.6 32 32" xmlns="http://www.w3.org/2000/svg" xmlns:xlink="http://www.w3.org/1999/xlink">
  <g transform="translate(0, 0)">
    <g transform="matrix(1.1429, 0, 0, 1.1429, 0, 0)">
      <g id="Layer_1" transform="translate(-0.9333, -2.8)">
        <g transform="matrix(0.9333, 0, 0, 0.9333, 0, 0)">
          <g id="icon">
            <path d="M30, 29.5L2, 29.5C1.724, 29.5 1.5, 29.276 1.5, 29L1.5, 7.5L30.5, 7.5L30.5, 29C30.5, 29.276 30.276, 29.5 30, 29.5z" fill="#FFFFFF" />
          </g>
        </g>
      </g>
    </g>
  </g>
  <g transform="translate(0, 0)">
    <g transform="matrix(1.1429, 0, 0, 1.1429, 0, 0)">
      <g id="Layer_1" transform="translate(-0.9333, -2.8)">
        <g transform="matrix(0.9333, 0, 0, 0.9333, 0, 0)">
          <g id="icon">
            <path d="M29.6, 3L2.4, 3C1.627, 3 1, 3.627 1, 4.4L1, 8L31, 8L31, 4.4C31, 3.627 30.373, 3 29.6, 3zM21, 7L19, 7L19, 5L21, 5L21, 7zM25, 7L23, 7L23, 5L25, 5L25, 7zM29, 7L27, 7L27, 5L29, 5L29, 7z" fill="#1177D7" class="Blue" />
          </g>
        </g>
      </g>
    </g>
  </g>
  <g transform="translate(0, 0)">
    <g transform="matrix(1.1429, 0, 0, 1.1429, 0, 0)">
      <g id="Layer_1" transform="translate(-0.9333, -2.8)">
        <g transform="matrix(0.9333, 0, 0, 0.9333, 0, 0)">
          <g id="icon">
            <path d="M30, 8L30.001, 29L2, 29L2, 8L1, 8L1, 29C1, 29.551 1.449, 30 2, 30L30, 30C30.551, 30 31, 29.551 31, 29L31, 8L30, 8z" fill="#727272" class="Black" />
          </g>
        </g>
      </g>
    </g>
  </g>
  <g transform="translate(0, 0)">
    <g transform="matrix(1.1429, 0, 0, 1.1429, 0, 0)">
      <g id="Layer_1" transform="translate(-0.9333, -2.8)">
        <g transform="matrix(0.9333, 0, 0, 0.9333, 0, 0)">
          <g id="icon">
            <path d="M29, 7L27, 7L27, 5L29, 5L29, 7zM25, 5L23, 5L23, 7L25, 7L25, 5zM21, 5L19, 5L19, 7L21, 7L21, 5z" fill="#FFFFFF" />
          </g>
        </g>
      </g>
    </g>
  </g>
  <g transform="translate(0, 0)">
    <g transform="matrix(1.1429, 0, 0, 1.1429, 0, 0)">
      <g id="Layer_1" transform="translate(-0.9333, -2.8)">
        <g transform="matrix(0.9333, 0, 0, 0.9333, 0, 0)">
          <g id="icon">
            <path d="M15.5, 18.5L7, 18.5L7, 12L15.5, 12L15.5, 18.5zM25, 12L16.5, 12L16.5, 18.5L25, 18.5L25, 12zM25, 19.5L16.5, 19.5L16.5, 26L25, 26L25, 19.5zM15.5, 19.5L7, 19.5L7, 26L15.5, 26L15.5, 19.5z" fill="#1177D7" class="Blue" fill-rule="evenodd" />
          </g>
        </g>
      </g>
    </g>
  </g>
</svg>