<?xml version='1.0' encoding='UTF-8'?>
<svg viewBox="0 -1.6 32 32" xmlns="http://www.w3.org/2000/svg" xmlns:xlink="http://www.w3.org/1999/xlink">
  <g transform="translate(0, 0)">
    <g transform="matrix(1.1429, 0, 0, 1.1429, 0, 0)">
      <g id="Layer_1" transform="translate(-0.9333, -2.8)">
        <g transform="matrix(0.9333, 0, 0, 0.9333, 0, 0)">
          <g id="icon">
            <path d="M29.6, 3L2.4, 3C1.627, 3 1, 3.627 1, 4.4L1, 8L31, 8L31, 4.4C31, 3.627 30.373, 3 29.6, 3zM21, 7L19, 7L19, 5L21, 5L21, 7zM25, 7L23, 7L23, 5L25, 5L25, 7zM29, 7L27, 7L27, 5L29, 5L29, 7z" fill="#1177D7" class="Blue" />
          </g>
        </g>
      </g>
    </g>
  </g>
  <g transform="translate(0, 0)">
    <g transform="matrix(1.1429, 0, 0, 1.1429, 0, 0)">
      <g id="Layer_1" transform="translate(-0.9333, -2.8)">
        <g transform="matrix(0.9333, 0, 0, 0.9333, 0, 0)">
          <g id="icon">
            <path d="M2, 8L2, 29L30, 29L30, 8L2, 8zM7.131, 25.836C7.687, 25.836 8.276, 25.723 8.65, 25.564L8.877, 26.664C8.548, 26.823 7.822, 27.004 6.892, 27.004C4.465, 27.004 2.991, 25.385 2.991, 23.048C2.991, 20.53 4.749, 19.011 7.085, 19.011C8.003, 19.011 8.65, 19.204 8.933, 19.351L8.638, 20.462C8.275, 20.303 7.764, 20.167 7.141, 20.167C5.587, 20.167 4.465, 21.142 4.465, 22.98C4.466, 24.67 5.441, 25.836 7.131, 25.836zM10.984, 25.904C10.496, 25.904 10.145, 25.518 10.145, 25.019C10.145, 24.497 10.496, 24.123 11.007, 24.123C11.518, 24.123 11.858, 24.486 11.858, 25.019C11.858, 25.519 11.517, 25.904 10.984, 25.904zM10.984, 22.083C10.496, 22.083 10.145, 21.697 10.145, 21.198C10.145, 20.676 10.496, 20.302 11.007, 20.302C11.518, 20.302 11.858, 20.665 11.858, 21.198C11.858, 21.697 11.517, 22.083 10.984, 22.083zM15.177, 27.022L12.524, 19L13.499, 19L16.153, 27.022L15.177, 27.022zM22.012, 23.417L17, 25.979L17, 24.979L21.039, 23.001L21.039, 22.979L17, 21L17, 20L22.012, 22.563L22.012, 23.417z" fill="#727272" class="Black" fill-rule="evenodd" />
          </g>
        </g>
      </g>
    </g>
  </g>
  <g transform="translate(0, 0)">
    <g transform="matrix(1.1429, 0, 0, 1.1429, 0, 0)">
      <g id="Layer_1" transform="translate(-0.9333, -2.8)">
        <g transform="matrix(0.9333, 0, 0, 0.9333, 0, 0)">
          <g id="icon">
            <path d="M8.878, 26.664C8.549, 26.823 7.823, 27.004 6.893, 27.004C4.466, 27.004 2.992, 25.385 2.992, 23.048C2.992, 20.53 4.75, 19.011 7.086, 19.011C8.004, 19.011 8.651, 19.204 8.934, 19.351L8.639, 20.462C8.276, 20.303 7.765, 20.167 7.142, 20.167C5.588, 20.167 4.466, 21.142 4.466, 22.98C4.466, 24.669 5.441, 25.835 7.131, 25.835C7.687, 25.835 8.276, 25.722 8.65, 25.563L8.878, 26.664zM10.145, 21.198C10.145, 20.676 10.496, 20.302 11.007, 20.302C11.518, 20.302 11.858, 20.665 11.858, 21.198C11.858, 21.697 11.518, 22.083 10.984, 22.083C10.497, 22.083 10.145, 21.697 10.145, 21.198zM10.145, 25.02C10.145, 24.498 10.496, 24.124 11.007, 24.124C11.518, 24.124 11.858, 24.487 11.858, 25.02C11.858, 25.519 11.518, 25.905 10.984, 25.905C10.497, 25.904 10.145, 25.519 10.145, 25.02zM15.177, 27.022L12.524, 19L13.499, 19L16.153, 27.022L15.177, 27.022zM22.012, 23.417L17, 25.979L17, 24.979L21.039, 23.001L21.039, 22.979L17, 21L17, 20L22.012, 22.563L22.012, 23.417z" fill="#FFFFFF" />
          </g>
        </g>
      </g>
    </g>
  </g>
  <g transform="translate(0, 0)">
    <g transform="matrix(1.1429, 0, 0, 1.1429, 0, 0)">
      <g id="Layer_1" transform="translate(-0.9333, -2.8)">
        <g transform="matrix(0.9333, 0, 0, 0.9333, 0, 0)">
          <g id="icon">
            <path d="M30, 8L30.001, 29L2, 29L2, 8L1, 8L1, 29C1, 29.551 1.449, 30 2, 30L30, 30C30.551, 30 31, 29.551 31, 29L31, 8L30, 8z" fill="#727272" class="Black" />
          </g>
        </g>
      </g>
    </g>
  </g>
  <g transform="translate(0, 0)">
    <g transform="matrix(1.1429, 0, 0, 1.1429, 0, 0)">
      <g id="Layer_1" transform="translate(-0.9333, -2.8)">
        <g transform="matrix(0.9333, 0, 0, 0.9333, 0, 0)">
          <g id="icon">
            <path d="M29, 7L27, 7L27, 5L29, 5L29, 7zM25, 5L23, 5L23, 7L25, 7L25, 5zM21, 5L19, 5L19, 7L21, 7L21, 5z" fill="#FFFFFF" />
          </g>
        </g>
      </g>
    </g>
  </g>
</svg>