<?xml version="1.0" encoding="UTF-8"?>
<!DOCTYPE svg PUBLIC "-//W3C//DTD SVG 1.1//EN" "http://www.w3.org/Graphics/SVG/1.1/DTD/svg11.dtd">
<svg version="1.1" id="Layer_1" xmlns="http://www.w3.org/2000/svg" xmlns:xlink="http://www.w3.org/1999/xlink" x="0px" y="0px" width="32px" height="32px" viewBox="0 0 32 32" enable-background="new 0 0 32 32" xml:space="preserve">
  <g id="icon">
    <path d="M2.91,27.9c-0.552,0,-1.031,-0.185,-1.423,-0.549c-0.318,-0.278,-0.488,-0.666,-0.488,-1.118c0,-0.382,0.139,-0.716,0.414,-0.991c0.268,-0.268,0.599,-0.404,0.983,-0.404c0.308,0,0.574,0.109,0.789,0.324c0.219,0.218,0.335,0.49,0.335,0.787c0,0.209,-0.059,0.404,-0.176,0.584c0.187,-0.039,0.386,-0.124,0.593,-0.251c0.308,-0.19,0.589,-0.482,0.836,-0.869c0.259,-0.406,0.511,-1.014,0.749,-1.805c0.103,-0.337,0.389,-1.482,0.849,-3.403l1.861,-7.857H6.957c-0.171,0,-0.33,-0.082,-0.436,-0.224c-0.104,-0.139,-0.144,-0.319,-0.11,-0.494l0.09,-0.461c0.054,-0.276,0.276,-0.471,0.541,-0.474c0.674,-0.008,0.955,-0.077,1.062,-0.117c0.182,-0.069,0.357,-0.209,0.519,-0.418c0.188,-0.241,0.445,-0.718,0.764,-1.419c0.459,-1.013,0.908,-1.814,1.336,-2.381c0.593,-0.774,1.228,-1.364,1.889,-1.756c0.676,-0.401,1.33,-0.604,1.943,-0.604c0.671,0,1.226,0.194,1.647,0.577c0.44,0.399,0.662,0.854,0.662,1.35c0,0.397,-0.124,0.738,-0.369,1.015c-0.252,0.285,-0.575,0.429,-0.96,0.429c-0.338,0,-0.623,-0.113,-0.846,-0.337c-0.226,-0.227,-0.346,-0.516,-0.346,-0.836c0,-0.204,0.064,-0.429,0.196,-0.687c0.033,-0.064,0.055,-0.113,0.071,-0.149c-0.028,-0.005,-0.065,-0.009,-0.113,-0.009c-0.383,0,-0.733,0.135,-1.039,0.401c-0.461,0.396,-0.885,1.037,-1.26,1.905c-0.177,0.419,-0.499,1.44,-0.956,3.034h0.931c0.177,0,0.34,0.087,0.446,0.238c0.104,0.147,0.138,0.334,0.093,0.513l-0.116,0.46c-0.065,0.26,-0.287,0.441,-0.539,0.441h-1.231l-1.181,5.09c-0.559,2.399,-1.131,4.285,-1.701,5.605c-0.824,1.898,-1.734,3.236,-2.706,3.976C4.474,27.603,3.691,27.9,2.91,27.9zM15.096,26.528c-0.212,0,-0.403,-0.125,-0.498,-0.326c-0.663,-1.39,-1.15,-2.642,-1.448,-3.721c-0.243,-0.894,-0.365,-1.808,-0.365,-2.716c0,-2.1,0.456,-4.011,1.354,-5.679c1.068,-1.975,2.801,-3.922,5.151,-5.785c0.097,-0.077,0.212,-0.117,0.333,-0.117c0.186,0,0.36,0.098,0.464,0.263l0.025,0.039c0.164,0.26,0.11,0.614,-0.123,0.806c-0.983,0.809,-1.8,1.721,-2.428,2.712c-0.825,1.299,-1.511,2.895,-2.039,4.744c-0.528,1.849,-0.796,3.55,-0.796,5.057c0,1.088,0.3,2.397,0.893,3.889c0.117,0.295,-0.003,0.633,-0.272,0.771l-0.011,0.005C15.261,26.509,15.18,26.528,15.096,26.528zM24.154,26.516c-0.176,0,-0.338,-0.086,-0.445,-0.235l-0.01,-0.014c-0.089,-0.125,-0.128,-0.28,-0.11,-0.436c0.019,-0.158,0.094,-0.298,0.212,-0.396c0.98,-0.813,1.796,-1.724,2.423,-2.708c0.825,-1.3,1.511,-2.897,2.038,-4.747c0.528,-1.852,0.796,-3.555,0.796,-5.062c0,-1.091,-0.302,-2.403,-0.897,-3.9c-0.111,-0.28,-0.009,-0.603,0.237,-0.752l0.019,-0.012c0.084,-0.051,0.179,-0.078,0.275,-0.078c0.211,0,0.402,0.125,0.498,0.325c0.66,1.379,1.143,2.625,1.434,3.703c0.248,0.893,0.374,1.806,0.374,2.713c0,2.106,-0.456,4.017,-1.354,5.68c-1.075,1.983,-2.81,3.934,-5.158,5.799C24.39,26.475,24.275,26.516,24.154,26.516zM22.889,22.658c-0.333,0,-0.799,-0.143,-1.128,-0.825c-0.079,-0.159,-0.216,-0.562,-0.576,-2.243c-0.699,1.231,-1.293,2.069,-1.764,2.494c-0.428,0.381,-0.861,0.573,-1.286,0.573c-0.332,0,-0.635,-0.129,-0.901,-0.382c-0.226,-0.225,-0.34,-0.517,-0.34,-0.87c0,-0.32,0.102,-0.594,0.304,-0.813c0.202,-0.219,0.462,-0.334,0.754,-0.334c0.287,0,0.576,0.139,0.859,0.412c0.033,0.032,0.061,0.056,0.082,0.074c0.005,-0.004,0.011,-0.009,0.016,-0.015c0.169,-0.148,0.485,-0.52,1.042,-1.461c0.405,-0.683,0.689,-1.203,0.844,-1.545c-0.466,-1.98,-0.533,-2.23,-0.542,-2.26c-0.107,-0.328,-0.238,-0.555,-0.388,-0.674c-0.143,-0.113,-0.391,-0.173,-0.717,-0.173c-0.081,0,-0.172,0.003,-0.271,0.008l-0.02,0.001c-0.155,0,-0.297,-0.063,-0.403,-0.177c-0.105,-0.112,-0.162,-0.261,-0.162,-0.419c0,-0.291,0.193,-0.538,0.46,-0.589l2.109,-0.403c0.032,-0.006,0.065,-0.009,0.099,-0.009c0.159,0,0.311,0.072,0.417,0.199c0.279,0.333,0.496,0.674,0.647,1.013c0.078,0.168,0.177,0.477,0.308,0.963l0.29,-0.473c0.227,-0.338,0.499,-0.657,0.811,-0.952c0.321,-0.303,0.616,-0.517,0.875,-0.636c0.19,-0.086,0.398,-0.129,0.619,-0.129c0.352,0,0.643,0.111,0.866,0.329c0.229,0.224,0.35,0.514,0.35,0.838c0,0.363,-0.083,0.623,-0.253,0.795c-0.242,0.234,-0.521,0.352,-0.831,0.352c-0.17,0,-0.35,-0.038,-0.535,-0.113c-0.319,-0.117,-0.407,-0.124,-0.411,-0.124c0.002,0,-0.071,0.01,-0.238,0.163c-0.308,0.281,-0.69,0.837,-1.133,1.655l0.682,3.103c0.094,0.424,0.156,0.611,0.186,0.688c0.028,-0.018,0.065,-0.045,0.113,-0.088c0.247,-0.224,0.467,-0.517,0.655,-0.871c0.1,-0.188,0.287,-0.305,0.488,-0.305c0.089,0,0.178,0.023,0.257,0.067l0.015,0.008c0.133,0.074,0.233,0.205,0.276,0.36c0.042,0.155,0.025,0.317,-0.048,0.457c-0.376,0.717,-0.851,1.328,-1.41,1.817C23.554,22.491,23.207,22.658,22.889,22.658z" fill="#6D6E71"/>
  </g>
</svg>
