<?xml version='1.0' encoding='UTF-8'?>
<svg viewBox="0 -1.5 32 32" xmlns="http://www.w3.org/2000/svg" xmlns:xlink="http://www.w3.org/1999/xlink">
  <clipPath id="clip_mask" tag="staticElement_id43299552">
    <path d="M16.5017, 31.5812C15.8603, 30.9359 15.8603, 29.8858 16.5018, 29.2404L19.9194, 25.8507C19.3817, 24.7086 19.1614, 23.4229 19.2955, 22.1548C19.4609, 20.591 20.1622, 19.1156 21.2704, 18.0004C22.5712, 16.6913 24.3004, 15.9704 26.1394, 15.9704C27.9741, 15.9704 29.6979, 16.6885 30.9935, 17.9923C31.3877, 18.389 31.7221, 18.8234 31.9999, 19.283L31.9999, 0L0, 0L0, 32L16.9179, 32L16.5017, 31.5812z" fill="#727272" fill-opacity="1" class="Black" fill-rule="evenodd" />
  </clipPath>
  <g transform="translate(0, -0.0012)">
    <g transform="matrix(1.143, 0, 0, 1.143, 0, 0)">
      <g id="Layer_1" transform="translate(-0.0002, -2.6252)">
        <g transform="matrix(0.8749, 0, 0, 0.8749, 0, 0)">
          <g id="main">
            <g id="icon" clip-path="url(#clip_mask)">
              <g id="transformed_icon" transform="translate(-1, -1)">
                <path d="M28.8, 29L3.2, 29C2.5373, 29 2, 28.4627 2, 27.8L1, 14.2C1, 13.5373 1.5373, 13 2.2, 13L29.8, 13C30.4627, 13 31, 13.5373 31, 14.2L30, 27.8C30, 28.4627 29.4627, 29 28.8, 29z" fill="#FFB115" fill-opacity="1" class="Yellow" fill-rule="evenodd" />
              </g>
            </g>
          </g>
        </g>
      </g>
    </g>
  </g>
  <g transform="translate(0, -0.0012)">
    <g transform="matrix(1.143, 0, 0, 1.143, 0, 0)">
      <g id="Layer_1" transform="translate(-0.0002, -2.6252)">
        <g transform="matrix(0.8749, 0, 0, 0.8749, 0, 0)">
          <g id="main">
            <g id="icon" clip-path="url(#clip_mask)">
              <g id="transformed_icon" transform="translate(-1, -1)">
                <path d="M29, 12L3, 12L3, 5.2C3, 4.5373 3.5373, 4 4.2, 4L13.1716, 4C13.702, 4 14.2107, 4.2107 14.5858, 4.5858L16.4142, 6.4142C16.7893, 6.7893 17.298, 7 17.8284, 7L27.8, 7C28.4627, 7 29, 7.5373 29, 8.2L29, 12z" fill="#FFB115" fill-opacity="1" class="Yellow" fill-rule="evenodd" />
              </g>
            </g>
          </g>
        </g>
      </g>
    </g>
  </g>
  <g transform="translate(0, -0.0012)">
    <g transform="matrix(1.143, 0, 0, 1.143, 0, 0)">
      <g id="Layer_1" transform="translate(-0.0002, -2.6252)">
        <g transform="matrix(0.8749, 0, 0, 0.8749, 0, 0)">
          <g id="main">
            <g id="overlay">
              <path d="M30.2842, 18.697C27.9933, 16.3915 24.2753, 16.3951 21.9798, 18.7052C20.0011, 20.6964 19.727, 23.7507 21.156, 26.0327L17.2111, 29.9454C16.9556, 30.2025 16.9556, 30.6193 17.2111, 30.8763L18.1362, 31.8072C18.3916, 32.0643 18.8058, 32.0643 19.0613, 31.8072L23.0088, 27.8919C25.2749, 29.3201 28.3015, 29.0414 30.2762, 27.0541C32.5715, 24.7441 32.5751, 21.0025 30.2842, 18.697zM28.843, 25.6448C27.3301, 27.1673 24.8772, 27.1673 23.3643, 25.6448C21.8514, 24.1223 21.8514, 21.6538 23.3643, 20.1313C24.8772, 18.6088 27.3301, 18.6088 28.843, 20.1313C30.3559, 21.6538 30.3559, 24.1223 28.843, 25.6448z" fill="#727272" fill-opacity="1" class="Black" fill-rule="evenodd" />
            </g>
          </g>
        </g>
      </g>
    </g>
  </g>
</svg>