<?xml version="1.0" encoding="UTF-8"?>
<!DOCTYPE svg PUBLIC "-//W3C//DTD SVG 1.1//EN" "http://www.w3.org/Graphics/SVG/1.1/DTD/svg11.dtd">
<svg version="1.1" id="Layer_1" xmlns="http://www.w3.org/2000/svg" xmlns:xlink="http://www.w3.org/1999/xlink" x="0px" y="0px" width="32px" height="32px" viewBox="0 0 32 32" enable-background="new 0 0 32 32" xml:space="preserve">
  <g id="icon">
    <path d="M26.3625,1H1.6375C0.7369,1,0,1.7369,0,2.6375v16.725C0,20.2631,0.7369,21,1.6375,21h12.252c-0.5017,-0.6023,-0.921,-1.2751,-1.2446,-2H2V3h24v5.8912c0.8037,0.6701,1.4838,1.4835,2,2.4016V2.6375C28,1.7369,27.2631,1,26.3625,1z" fill="#3E79B4"/>
    <path d="M13.1711,20H11v3h5.2929C15.0145,22.2813,13.9381,21.2465,13.1711,20z" fill="#3E79B4"/>
    <path d="M12,15.5c0,-4.7497,3.7504,-8.5,8.5,-8.5c2.0921,0,4.0091,0.7476,5.5,1.9895V3H2v16h10.7448C12.2675,17.9305,12,16.7468,12,15.5z" fill="#FFFFFF"/>
    <path d="M24.2085,23.2589C23.0855,23.7971,21.8285,24.1,20.5,24.1c-1.5287,0,-2.9631,-0.4006,-4.2071,-1.1H2.975c-0.5362,0,-0.975,0.4388,-0.975,0.975v5.05c0,0.5362,0.4388,0.975,0.975,0.975h21.95c0.5362,0,0.975,-0.4388,0.975,-0.975v-4.2089L24.2085,23.2589zM16.5,28H4.5c-0.275,0,-0.5,-0.225,-0.5,-0.5s0.225,-0.5,0.5,-0.5h12c0.275,0,0.5,0.225,0.5,0.5S16.775,28,16.5,28zM16.5,26H4.5c-0.275,0,-0.5,-0.225,-0.5,-0.5s0.225,-0.5,0.5,-0.5h12c0.275,0,0.5,0.225,0.5,0.5S16.775,26,16.5,26zM21.5,28c-0.8284,0,-1.5,-0.6716,-1.5,-1.5c0,-0.8284,0.6716,-1.5,1.5,-1.5s1.5,0.6716,1.5,1.5C23,27.3284,22.3284,28,21.5,28z" fill="#3E79B4"/>
    <path d="M16.5,28H4.5c-0.275,0,-0.5,-0.225,-0.5,-0.5l0,0c0,-0.275,0.225,-0.5,0.5,-0.5h12c0.275,0,0.5,0.225,0.5,0.5l0,0C17,27.775,16.775,28,16.5,28z" fill="#FFFFFF"/>
    <path d="M16.5,26H4.5c-0.275,0,-0.5,-0.225,-0.5,-0.5l0,0c0,-0.275,0.225,-0.5,0.5,-0.5h12c0.275,0,0.5,0.225,0.5,0.5l0,0C17,25.775,16.775,26,16.5,26z" fill="#FFFFFF"/>
    <circle cx="21.5" cy="26.5" r="1.5" fill="#FFFFFF"/>
    <path d="M31.6479,24.2142l-4.7892,-4.7892c1.7874,-2.8822,1.4289,-6.7193,-1.0773,-9.2256c-2.9227,-2.9227,-7.6567,-2.9273,-10.5737,-0.0103c-2.917,2.917,-2.9124,7.651,0.0103,10.5737c2.4994,2.4994,6.3225,2.8628,9.202,1.092l4.7936,4.7936c0.3361,0.3361,0.881,0.3361,1.2171,0l1.2171,-1.2171C31.984,25.0952,31.984,24.5503,31.6479,24.2142zM24.3406,19.3426c-2.1269,2.1269,-5.5753,2.1269,-7.7022,0c-2.1269,-2.1269,-2.1269,-5.5753,0,-7.7022c2.1269,-2.1269,5.5753,-2.1269,7.7022,0C26.4675,13.7673,26.4675,17.2157,24.3406,19.3426z" fill-rule="evenodd" fill="#797979"/>
    <circle cx="20.5" cy="15.5" r="4.5" fill="#FFFFFF"/>
  </g>
</svg>
