<?xml version="1.0" encoding="UTF-8"?>
<!DOCTYPE svg PUBLIC "-//W3C//DTD SVG 1.1//EN" "http://www.w3.org/Graphics/SVG/1.1/DTD/svg11.dtd">
<svg version="1.1" id="Layer_1" xmlns="http://www.w3.org/2000/svg" xmlns:xlink="http://www.w3.org/1999/xlink" x="0px" y="0px" width="32px" height="32px" viewBox="0 0 32 32" enable-background="new 0 0 32 32" xml:space="preserve">
  <g id="main">
    <clipPath id="clip_mask">
      <path d="M18.4134,31.9236l-1.3418,-1.3472c-0.7029,-0.7057,-1.0813,-1.6532,-1.0656,-2.6683c0.0156,-0.998,0.4092,-1.9342,1.1082,-2.636l4.355,-4.3698c0.0136,-0.0141,0.0274,-0.0281,0.0412,-0.042l3.7721,-3.7854c0.7024,-0.7051,1.6813,-1.1096,2.6857,-1.1096c0.9968,0,1.9266,0.3823,2.6179,1.0765l1.3418,1.347c0.0248,0.0249,0.0481,0.0508,0.0721,0.0762V0H0v32h18.4934C18.4666,31.9747,18.4395,31.9498,18.4134,31.9236z"/>
    </clipPath>
    <g id="icon" clip-path="url(#clip_mask)">
      <g id="transformed_icon" transform="translate(-1 -1)">
        <g>
          <path d="M28.8739,30.5H14.1261c-0.4418,0,-0.6261,-0.1786,-0.6261,-0.6199V11.1c0,-0.4413,0.1582,-0.6,0.6,-0.6c0,0,10.1348,0,10.3,0s0.3533,0.0143,0.5969,0.2555c0.2082,0.2061,3.1928,3.2834,4.2248,4.3052c0.1758,0.1741,0.2783,0.3788,0.2783,0.6888c0,0.2152,0,14.1307,0,14.1307C29.5,30.3214,29.3157,30.5,28.8739,30.5z" fill-rule="evenodd" fill="#FFFFFF" stroke="#797979" stroke-width="1" stroke-miterlimit="1"/>
          <path d="M24.5101,10.6867c0,0,0,3.836,0,4.2133s0.4676,0.6,0.6899,0.6c-0.2281,0,-0.8619,0,4,0" fill-rule="evenodd" fill="none" stroke="#797979" stroke-width="1" stroke-miterlimit="1" stroke-linejoin="round"/>
          <rect x="16" y="14" width="6" height="1" fill-rule="evenodd" fill="#3E79B4"/>
          <rect x="16" y="17" width="6" height="1" fill-rule="evenodd" fill="#3E79B4"/>
          <rect x="16" y="20" width="11" height="1" fill-rule="evenodd" fill="#3E79B4"/>
          <rect x="16" y="23" width="11" height="1" fill-rule="evenodd" fill="#3E79B4"/>
          <rect x="16" y="26" width="11" height="1" fill-rule="evenodd" fill="#3E79B4"/>
        </g>
        <g>
          <g>
            <path d="M12,10.8375C12,9.8227,12.8227,9,13.8375,9H18.5c0,-1.3081,0,-2.1974,0,-2.2506c0,-0.3099,-0.1024,-0.5147,-0.2783,-0.6888c-1.032,-1.0218,-4.0166,-4.0991,-4.2248,-4.3052C13.7533,1.5143,13.5652,1.5,13.4,1.5S3.1,1.5,3.1,1.5c-0.4418,0,-0.6,0.1587,-0.6,0.6v18.7801c0,0.4412,0.1843,0.6199,0.6261,0.6199H12V10.8375z" fill-rule="evenodd" fill="#FFFFFF"/>
            <path d="M12,21H3.1261c-0.0571,0,-0.0949,-0.0043,-0.1181,-0.0086c-0.004,-0.0223,-0.008,-0.058,-0.008,-0.1112V2.1c0,-0.0417,0.002,-0.0729,0.0044,-0.0956C3.0271,2.002,3.0583,2,3.1,2h10.3c0.0943,0,0.1333,0,0.2452,0.1108c0.0613,0.0607,0.4074,0.4156,0.8455,0.8649c0.9962,1.0217,2.6637,2.7318,3.3793,3.4403c0.0843,0.0835,0.13,0.1614,0.13,0.3334V9h1V6.7494c0,-0.4185,-0.1395,-0.76,-0.4265,-1.0441c-0.7093,-0.7022,-2.3729,-2.4084,-3.3669,-3.4278c-0.4759,-0.488,-0.7903,-0.8104,-0.8579,-0.8774C13.9926,1.0476,13.6693,1,13.4,1H3.1c-0.7196,0,-1.1,0.3804,-1.1,1.1v18.7801C2,21.5918,2.4104,22,3.1261,22H12V21z" fill="#ABABAB"/>
          </g>
          <path d="M13.5101,1.6867c0,0,0,3.836,0,4.2133s0.4676,0.6,0.6899,0.6c-0.2281,0,-0.8619,0,4,0" fill-rule="evenodd" fill="none" stroke="#ABABAB" stroke-width="1" stroke-miterlimit="1" stroke-linejoin="round"/>
          <rect x="5" y="5" width="6" height="1" fill-rule="evenodd" fill="#71AADB"/>
          <rect x="5" y="8" width="6" height="1" fill-rule="evenodd" fill="#71AADB"/>
          <rect x="5" y="11" width="7" height="1" fill-rule="evenodd" fill="#71AADB"/>
          <rect x="5" y="14" width="7" height="1" fill-rule="evenodd" fill="#71AADB"/>
          <rect x="5" y="17" width="7" height="1" fill-rule="evenodd" fill="#71AADB"/>
        </g>
      </g>
    </g>
    <g id="overlay">
      <path d="M31.1768,22.9873l-2.5205,2.5287c0.059,-0.5717,-0.0256,-1.432,-0.4167,-1.9061l1.7795,-1.7849c0.2018,-0.2026,0.3248,-0.486,0.3375,-0.7775c0.0132,-0.3057,-0.0915,-0.5865,-0.2948,-0.7907L28.72,18.9098c-0.1936,-0.1944,-0.4605,-0.3015,-0.7514,-0.3015c-0.3092,0,-0.6081,0.122,-0.8201,0.3347l-3.7719,3.7852c-0.2029,0.2037,-0.3101,0.4738,-0.3019,0.7607c0.0081,0.2809,0.1255,0.549,0.3306,0.7549l1.3594,1.3647l-1.1576,1.1623l-1.3594,-1.3648c-0.516,-0.518,-0.8036,-1.2012,-0.8098,-1.9238c-0.0063,-0.7237,0.2711,-1.4042,0.7811,-1.9162l3.772,-3.7852c0.5162,-0.5182,1.2369,-0.8154,1.9773,-0.8154c0.7289,0,1.407,0.2778,1.9094,0.7822l1.3418,1.347C32.2766,20.156,32.2575,21.9023,31.1768,22.9873zM17.7801,29.8708l1.3418,1.3471c0.5024,0.5044,1.1805,0.7822,1.9094,0.7822c0.7404,0,1.4612,-0.2972,1.9773,-0.8155l3.7719,-3.7852c1.0466,-1.0507,1.0337,-2.7733,-0.0287,-3.84l-1.3594,-1.3647l-1.1576,1.1622l1.3593,1.3647c0.4313,0.433,0.444,1.0987,0.0288,1.5156l-3.772,3.7705c-0.2119,0.2127,-0.5108,0.3201,-0.82,0.3201h-0.0001c-0.2909,0,-0.5578,-0.0924,-0.7514,-0.2869l-1.3417,-1.3397c-0.2034,-0.2042,-0.3081,-0.4813,-0.2949,-0.787c0.0126,-0.2915,0.1356,-0.5731,0.3375,-0.7757l1.7795,-1.784c-0.3911,-0.4734,-0.4757,-1.3337,-0.4166,-1.9057l-2.5205,2.529c-0.5152,0.5173,-0.8053,1.2084,-0.8168,1.9458C16.9944,28.6664,17.2693,29.358,17.7801,29.8708z" fill="#3E79B4"/>
    </g>
  </g>
</svg>
