<?xml version="1.0" encoding="UTF-8"?>
<!DOCTYPE svg PUBLIC "-//W3C//DTD SVG 1.1//EN" "http://www.w3.org/Graphics/SVG/1.1/DTD/svg11.dtd">
<svg version="1.1" id="Layer_1" xmlns="http://www.w3.org/2000/svg" xmlns:xlink="http://www.w3.org/1999/xlink" x="0px" y="0px" width="32px" height="32px" viewBox="0 0 32 32" enable-background="new 0 0 32 32" xml:space="preserve">
  <g id="icon">
    <path d="M9,24.4V4.5H7.1848C6.7015,4.5,6.5,4.6973,6.5,5.1848v21.6304c0,0.4875,0.2015,0.6848,0.6848,0.6848h17.6304c0.4833,0,0.6848,-0.1973,0.6848,-0.6848c0,0,0,-0.2993,0,-0.8152H10.6C9.7163,26,9,25.2837,9,24.4z" fill-rule="evenodd" fill="#FFFFFF"/>
    <path d="M25.5,26.2c0,0.5162,0,0.6152,0,0.6152c0,0.4875,-0.2015,0.6848,-0.6848,0.6848H7.1848c-0.4832,0,-0.6848,-0.1973,-0.6848,-0.6848V5.1848C6.5,4.6973,6.7015,4.5,7.1848,4.5c0,0,0.523,0,1.6152,0" fill-rule="evenodd" fill="none" stroke="#6D6E71" stroke-width="1" stroke-linecap="round" stroke-miterlimit="1"/>
    <path d="M5,27.4V7.5H3.1848C2.7015,7.5,2.5,7.6973,2.5,8.1848v21.6304c0,0.4875,0.2015,0.6848,0.6848,0.6848h17.6304c0.4833,0,0.6848,-0.1973,0.6848,-0.6848c0,0,0,-0.2993,0,-0.8152H6.6C5.7163,29,5,28.2837,5,27.4z" fill-rule="evenodd" fill="#FFFFFF"/>
    <path d="M21.5,29.2c0,0.5162,0,0.6152,0,0.6152c0,0.4875,-0.2015,0.6848,-0.6848,0.6848H3.1848c-0.4832,0,-0.6848,-0.1973,-0.6848,-0.6848V8.1848C2.5,7.6973,2.7015,7.5,3.1848,7.5c0,0,0.523,0,1.6152,0" fill-rule="evenodd" fill="none" stroke="#6D6E71" stroke-width="1" stroke-linecap="round" stroke-miterlimit="1"/>
    <path d="M28.8,24.5H11.2c-0.3866,0,-0.7,-0.3134,-0.7,-0.7V2.2c0,-0.3866,0.3134,-0.7,0.7,-0.7h17.6c0.3866,0,0.7,0.3134,0.7,0.7v21.6C29.5,24.1866,29.1866,24.5,28.8,24.5z" fill-rule="evenodd" fill="#FFFFFF" stroke="#6D6E71" stroke-width="1" stroke-miterlimit="1"/>
  </g>
</svg>
