<?xml version="1.0" encoding="UTF-8"?>
<!DOCTYPE svg PUBLIC "-//W3C//DTD SVG 1.1//EN" "http://www.w3.org/Graphics/SVG/1.1/DTD/svg11.dtd">
<svg version="1.1" id="Layer_1" xmlns="http://www.w3.org/2000/svg" xmlns:xlink="http://www.w3.org/1999/xlink" x="0px" y="0px" width="32px" height="32px" viewBox="0 0 32 32" enable-background="new 0 0 32 32" xml:space="preserve">
  <g id="main">
    <clipPath id="clip_mask">
      <path d="M16.5017,31.5812c-0.6414,-0.6453,-0.6414,-1.6954,0.0001,-2.3408l3.4176,-3.3897c-0.5377,-1.1421,-0.758,-2.4278,-0.6239,-3.6959c0.1654,-1.5638,0.8667,-3.0392,1.9749,-4.1544c1.3008,-1.3091,3.03,-2.03,4.869,-2.03c1.8347,0,3.5585,0.7181,4.8541,2.0219c0.3942,0.3967,0.7286,0.8311,1.0064,1.2907V0H0v32h16.9179L16.5017,31.5812z" fill-rule="evenodd"/>
    </clipPath>
    <g id="icon" clip-path="url(#clip_mask)">
      <g id="transformed_icon" transform="translate(-1 -1)">
        <path d="M29.6,3H2.4c-0.773,0,-1.4,0.627,-1.4,1.4v3.6h30V4.4C31,3.627,30.373,3,29.6,3zM21,7h-2V5h2V7zM25,7h-2V5h2V7zM29,7h-2V5h2V7z" fill="#3E79B4"/>
        <path d="M2,8v21h28V8H2zM7.131,25.836c0.556,0,1.145,-0.113,1.519,-0.272l0.227,1.1c-0.329,0.159,-1.055,0.34,-1.985,0.34c-2.427,0,-3.901,-1.619,-3.901,-3.956c0,-2.518,1.758,-4.037,4.094,-4.037c0.918,0,1.565,0.193,1.848,0.34l-0.295,1.111c-0.363,-0.159,-0.874,-0.295,-1.497,-0.295c-1.554,0,-2.676,0.975,-2.676,2.813C4.466,24.67,5.441,25.836,7.131,25.836zM10.984,25.904c-0.488,0,-0.839,-0.386,-0.839,-0.885c0,-0.522,0.351,-0.896,0.862,-0.896c0.511,0,0.851,0.363,0.851,0.896C11.858,25.519,11.517,25.904,10.984,25.904zM10.984,22.083c-0.488,0,-0.839,-0.386,-0.839,-0.885c0,-0.522,0.351,-0.896,0.862,-0.896c0.511,0,0.851,0.363,0.851,0.896C11.858,21.697,11.517,22.083,10.984,22.083zM15.177,27.022L12.524,19h0.975l2.654,8.022H15.177zM22.012,23.417L17,25.979v-1l4.039,-1.978v-0.022L17,21v-1l5.012,2.563V23.417z" fill-rule="evenodd" fill="#58595B"/>
        <path d="M8.878,26.664c-0.329,0.159,-1.055,0.34,-1.985,0.34c-2.427,0,-3.901,-1.619,-3.901,-3.956c0,-2.518,1.758,-4.037,4.094,-4.037c0.918,0,1.565,0.193,1.848,0.34l-0.295,1.111c-0.363,-0.159,-0.874,-0.295,-1.497,-0.295c-1.554,0,-2.676,0.975,-2.676,2.813c0,1.689,0.975,2.855,2.665,2.855c0.556,0,1.145,-0.113,1.519,-0.272L8.878,26.664zM10.145,21.198c0,-0.522,0.351,-0.896,0.862,-0.896c0.511,0,0.851,0.363,0.851,0.896c0,0.499,-0.34,0.885,-0.874,0.885C10.497,22.083,10.145,21.697,10.145,21.198zM10.145,25.02c0,-0.522,0.351,-0.896,0.862,-0.896c0.511,0,0.851,0.363,0.851,0.896c0,0.499,-0.34,0.885,-0.874,0.885C10.497,25.904,10.145,25.519,10.145,25.02zM15.177,27.022L12.524,19h0.975l2.654,8.022H15.177zM22.012,23.417L17,25.979v-1l4.039,-1.978v-0.022L17,21v-1l5.012,2.563V23.417z" fill="#FFFFFF"/>
        <path d="M30,8l0.001,21H2V8H1v21c0,0.551,0.449,1,1,1h28c0.551,0,1,-0.449,1,-1V8H30z" fill="#797979"/>
        <path d="M29,7h-2V5h2V7zM25,5h-2v2h2V5zM21,5h-2v2h2V5z" fill="#FFFFFF"/>
      </g>
    </g>
    <g id="overlay">
      <path d="M30.2842,18.697c-2.2909,-2.3055,-6.0089,-2.3019,-8.3044,0.0082c-1.9787,1.9912,-2.2528,5.0455,-0.8238,7.3275l-3.9449,3.9127c-0.2555,0.2571,-0.2555,0.6739,0,0.9309l0.9251,0.9309c0.2554,0.2571,0.6696,0.2571,0.9251,0l3.9475,-3.9153c2.2661,1.4282,5.2927,1.1495,7.2674,-0.8378C32.5715,24.7441,32.5751,21.0025,30.2842,18.697zM28.843,25.6448c-1.5129,1.5225,-3.9658,1.5225,-5.4787,0c-1.5129,-1.5225,-1.5129,-3.991,0,-5.5135c1.5129,-1.5225,3.9658,-1.5225,5.4787,0C30.3559,21.6538,30.3559,24.1223,28.843,25.6448z" fill-rule="evenodd" fill="#3E79B4"/>
    </g>
  </g>
</svg>
