<?xml version="1.0" encoding="UTF-8"?>
<!DOCTYPE svg PUBLIC "-//W3C//DTD SVG 1.1//EN" "http://www.w3.org/Graphics/SVG/1.1/DTD/svg11.dtd">
<svg version="1.1" id="Layer_1" xmlns="http://www.w3.org/2000/svg" xmlns:xlink="http://www.w3.org/1999/xlink" x="0px" y="0px" width="32px" height="32px" viewBox="0 0 32 32" enable-background="new 0 0 32 32" xml:space="preserve">
  <g id="icon">
    <path d="M30.845,8.781l-6.369,-5.374c-0.187,-0.16,-0.475,-0.027,-0.475,0.219v3.417h-0.988c-2.83,0,-5.359,1.311,-7.012,3.358c-1.653,-2.046,-4.182,-3.358,-7.012,-3.358H8V3.626c0,-0.246,-0.289,-0.379,-0.475,-0.219L1.155,8.781c-0.134,0.115,-0.134,0.322,0,0.437l6.369,5.374c0.187,0.16,0.475,0.027,0.475,-0.219v-3.331h0.988c2.768,0,5.012,2.244,5.012,5.012v14.329c0,0.341,0.276,0.617,0.617,0.617h2.767c0.341,0,0.617,-0.276,0.617,-0.617V16.055c0,-2.768,2.244,-5.012,5.012,-5.012H24v3.331c0,0.246,0.289,0.379,0.475,0.219l6.369,-5.374C30.979,9.104,30.979,8.896,30.845,8.781z" fill="#797979"/>
  </g>
</svg>
