<?xml version="1.0" encoding="UTF-8"?>
<!DOCTYPE svg PUBLIC "-//W3C//DTD SVG 1.1//EN" "http://www.w3.org/Graphics/SVG/1.1/DTD/svg11.dtd">
<svg version="1.1" id="Layer_1" xmlns="http://www.w3.org/2000/svg" xmlns:xlink="http://www.w3.org/1999/xlink" x="0px" y="0px" width="32px" height="32px" viewBox="0 0 32 32" enable-background="new 0 0 32 32" xml:space="preserve">
  <g id="main">
    <clipPath id="clip_mask">
      <path d="M16.2901,31.0616l4.7816,-5.9404l-1.9972,-2.0257c-0.5411,-0.5488,-0.5366,-1.4374,0.0101,-1.9806l0.8202,-0.8154c0.2655,-0.2641,0.6182,-0.4096,0.993,-0.4096c0.2571,0,0.5092,0.0705,0.729,0.2037c0.7706,0.4673,1.3248,0.6342,1.5669,0.6354c0.2484,-0.2457,0.5281,-0.5151,0.8229,-0.799c0.3876,-0.3734,0.8265,-0.7961,1.2938,-1.2604c0.0274,-0.0817,0.029,-0.3054,0.03,-0.4558c0.0033,-0.4638,0.0083,-1.1646,0.5448,-1.698c0.3428,-0.3408,0.771,-0.5208,1.2385,-0.5208c0.6386,0,1.1205,0.3486,1.2105,0.4185l0.0487,0.0378l2.1117,2.1007L32,20.0475V0H0v32h16.0183C15.9741,31.676,16.0677,31.3379,16.2901,31.0616z" fill-rule="evenodd"/>
    </clipPath>
    <g id="icon" clip-path="url(#clip_mask)">
      <g id="transformed_icon" transform="translate(-1 -1)">
        <path d="M2.8495,4.8079l8.1484,-2.7011c0.255,-0.0853,0.5307,-0.0853,0.7857,0l8.5317,2.8538c0.255,0.0853,0.5307,0.0853,0.7857,0l7.2638,-2.4382C29.1693,2.2533,30,2.8542,30,3.7051v22.3047c0,0.5366,-0.3422,1.013,-0.8495,1.1827l-8.0495,2.7011c-0.255,0.0853,-0.5307,0.0853,-0.7857,0l-8.5317,-2.8538c-0.255,-0.0853,-0.5307,-0.0853,-0.7857,0l-7.3626,2.4382C2.8307,29.747,2,29.1461,2,28.2952V5.9906C2,5.454,2.3422,4.9776,2.8495,4.8079z" fill="#FFFFFF" stroke="#3E79B4" stroke-width="2" stroke-linecap="round" stroke-miterlimit="1" stroke-linejoin="round"/>
        <line x1="11.5" y1="2.1" x2="11.5" y2="26.9" fill="none" stroke="#3E79B4" stroke-width="1" stroke-linecap="round" stroke-miterlimit="1" stroke-linejoin="round"/>
        <line x1="20.5" y1="5.1" x2="20.5" y2="29.9" fill="none" stroke="#3E79B4" stroke-width="1" stroke-linecap="round" stroke-miterlimit="1" stroke-linejoin="round"/>
      </g>
    </g>
    <g id="overlay">
      <path d="M31.8067,21.2651l-2.0172,-2.0043l-2.0679,-2.0572c0,0,-0.6234,-0.4835,-1.1312,0.0213c-0.5077,0.5048,0.0273,1.5551,-0.5608,2.1398c-0.8678,0.8628,-1.6202,1.5657,-2.1964,2.1386c-0.6196,0.616,-2.1135,-0.1837,-2.7247,-0.5544c-0.1601,-0.0971,-0.3661,-0.0721,-0.4987,0.0598l-0.8203,0.8155c-0.1578,0.1569,-0.1591,0.4108,-0.0029,0.5692l2.8696,2.9106l-0.0101,0.0099l0.5062,0.4933l0.4967,0.5038l0.0101,-0.0099l2.9275,2.8529c0.1594,0.1553,0.4148,0.154,0.5726,-0.0028l0.8203,-0.8155c0.1326,-0.1319,0.1578,-0.3366,0.0602,-0.4958c-0.3728,-0.6076,-1.1772,-2.0928,-0.5576,-2.7089c0.5762,-0.5729,1.2832,-1.3209,2.151,-2.1837c0.5881,-0.5847,1.6445,-0.0528,2.1522,-0.5575C32.293,21.8849,31.8067,21.2651,31.8067,21.2651z" fill-rule="evenodd" fill="#CC4B31"/>
      <path d="M22.1153,25.4196l-5.0462,6.2691c-0.1635,0.2031,0.0273,0.4029,0.2329,0.2439l6.3846,-4.9417L22.1153,25.4196z" fill-rule="evenodd" fill="#CC4B31"/>
    </g>
  </g>
</svg>
