<?xml version="1.0" encoding="UTF-8"?>
<!DOCTYPE svg PUBLIC "-//W3C//DTD SVG 1.1//EN" "http://www.w3.org/Graphics/SVG/1.1/DTD/svg11.dtd">
<svg version="1.1" id="Layer_1" xmlns="http://www.w3.org/2000/svg" xmlns:xlink="http://www.w3.org/1999/xlink" x="0px" y="0px" width="32px" height="32px" viewBox="0 0 32 32" enable-background="new 0 0 32 32" xml:space="preserve">
  <g id="main">
    <clipPath id="clip_mask">
      <path d="M20.9262,32C18.5189,30.6,16.9,27.9878,16.9,25c0,-4.4735,3.6265,-8.1,8.1,-8.1c2.9878,0,5.6,1.6189,7,4.0262V0L0,0l0,32H20.9262z" fill-rule="evenodd"/>
    </clipPath>
    <g id="icon" clip-path="url(#clip_mask)">
      <g id="transformed_icon" transform="translate(-1 -1)">
        <path d="M26.6,30.5H5.4c-0.6351,0,-0.9,-0.2594,-0.9,-0.9V2.4c0,-0.6407,0.2649,-0.9,0.9,-0.9c0,0,15.6626,0,15.9,0c0.2375,0,0.5495,0.0496,0.8997,0.3998C22.499,2.199,25.6164,5.3164,27.1,6.8c0.2527,0.2527,0.4,0.55,0.4,1c0,0.3125,0,21.8,0,21.8C27.5,30.2406,27.2351,30.5,26.6,30.5z" fill-rule="evenodd" fill="#FFFFFF"/>
        <path d="M27.4535,6.4464l-4.9001,-4.9002C22.1858,1.1787,21.7758,1,21.3,1H5.4c-0.9159,0,-1.4,0.4841,-1.4,1.4v27.2c0,0.9159,0.4841,1.4,1.4,1.4h21.2c0.9159,0,1.4,-0.4841,1.4,-1.4V7.8C28,7.2494,27.8264,6.8192,27.4535,6.4464zM22,2.4071L26.5929,7H22.3c-0.1654,0,-0.3,-0.1346,-0.3,-0.3V2.4071zM26.6,30H5.4c-0.3626,0,-0.4,-0.0374,-0.4,-0.4V2.4c0,-0.3626,0.0374,-0.4,0.4,-0.4h15.6v4.7c0,0.7168,0.5832,1.3,1.3,1.3h4.7v21.6C27,29.9626,26.9626,30,26.6,30z" fill="#6D6E71"/>
      </g>
    </g>
    <g id="overlay">
      <path d="M31.5917,24.1917l-3.7512,-0.1566c-0.0422,-0.1243,-0.092,-0.2451,-0.1495,-0.3615l2.5416,-2.763c0.1595,-0.1595,0.1595,-0.418,0,-0.5775l-0.5657,-0.5657c-0.1595,-0.1595,-0.418,-0.1595,-0.5775,0l-2.763,2.5416c-0.1164,-0.0575,-0.2371,-0.1073,-0.3615,-0.1495l-0.1566,-3.7512c0,-0.2255,-0.1828,-0.4083,-0.4083,-0.4083h-0.8c-0.2255,0,-0.4083,0.1828,-0.4083,0.4083l-0.1566,3.7512c-0.1243,0.0422,-0.2451,0.092,-0.3615,0.1495l-2.763,-2.5416c-0.1595,-0.1595,-0.418,-0.1595,-0.5775,0l-0.5657,0.5657c-0.1595,0.1595,-0.1595,0.418,0,0.5775l2.5416,2.7631c-0.0575,0.1164,-0.1073,0.2372,-0.1495,0.3615l-3.7512,0.1566c-0.2255,0,-0.4083,0.1828,-0.4083,0.4083v0.8c0,0.2255,0.1828,0.4083,0.4083,0.4083l3.7512,0.1566c0.0422,0.1243,0.092,0.2451,0.1495,0.3615l-2.5416,2.763c-0.1595,0.1595,-0.1595,0.418,0,0.5775l0.5657,0.5657c0.1595,0.1595,0.418,0.1595,0.5775,0l2.763,-2.5416c0.1164,0.0575,0.2372,0.1073,0.3615,0.1495l0.1566,3.7512c0,0.2255,0.1828,0.4083,0.4083,0.4083h0.8c0.2255,0,0.4083,-0.1828,0.4083,-0.4083l0.1566,-3.7512c0.1243,-0.0422,0.2451,-0.092,0.3615,-0.1495l2.763,2.5416c0.1595,0.1595,0.418,0.1595,0.5775,0l0.5657,-0.5657c0.1595,-0.1595,0.1595,-0.418,0,-0.5775l-2.5416,-2.763c0.0575,-0.1164,0.1073,-0.2371,0.1495,-0.3615l3.7512,-0.1566c0.2255,0,0.4083,-0.1828,0.4083,-0.4083v-0.8C32,24.3745,31.8172,24.1917,31.5917,24.1917zM25,26.2c-0.6627,0,-1.2,-0.5373,-1.2,-1.2c0,-0.6627,0.5373,-1.2,1.2,-1.2s1.2,0.5373,1.2,1.2C26.2,25.6627,25.6627,26.2,25,26.2z" fill-rule="evenodd" fill="#EAB765"/>
    </g>
  </g>
</svg>
