<?xml version="1.0" encoding="UTF-8"?>
<!DOCTYPE svg PUBLIC "-//W3C//DTD SVG 1.1//EN" "http://www.w3.org/Graphics/SVG/1.1/DTD/svg11.dtd">
<svg version="1.1" id="Layer_1" xmlns="http://www.w3.org/2000/svg" xmlns:xlink="http://www.w3.org/1999/xlink" x="0px" y="0px" width="32px" height="32px" viewBox="0 0 32 32" enable-background="new 0 0 32 32" xml:space="preserve">
  <g id="main">
    <clipPath id="clip_mask">
      <path d="M19.4412,30.5981c-2.9597,-3.0432,-2.9545,-8.0001,0.0114,-11.0499c1.5063,-1.5488,3.514,-2.4019,5.6877,-2.4019c1.2845,0,2.6597,0.4135,3.9597,1.1605v-0.9764c0,-0.6393,0.5565,-1.1594,1.2172,-1.1594c0.2925,0,0.5805,0.1053,0.7937,0.2966l0.8891,0.7804V0H0v32h21.2647C20.6018,31.6288,19.9875,31.1599,19.4412,30.5981z"/>
    </clipPath>
    <g id="icon" clip-path="url(#clip_mask)">
      <g id="transformed_icon" transform="translate(-1 -1)">
        <path d="M28.8,29H3.2c-0.6627,0,-1.2,-0.5373,-1.2,-1.2L1,14.2c0,-0.6627,0.5373,-1.2,1.2,-1.2h27.6c0.6627,0,1.2,0.5373,1.2,1.2l-1,13.6C30,28.4627,29.4627,29,28.8,29z" fill-rule="evenodd" fill="#E9B664"/>
        <path d="M29,12H3V5.2c0,-0.6627,0.5373,-1.2,1.2,-1.2h8.9716c0.5304,0,1.0391,0.2107,1.4142,0.5858l1.8284,1.8284C16.7893,6.7893,17.298,7,17.8284,7H27.8c0.6627,0,1.2,0.5373,1.2,1.2V12z" fill-rule="evenodd" fill="#96762C"/>
      </g>
    </g>
    <g id="overlay">
      <path d="M25.1197,32c-1.8831,0,-3.6452,-0.7454,-4.9616,-2.099c-2.5858,-2.6588,-2.5807,-6.9903,0.0114,-9.6555c1.3165,-1.3536,3.0886,-2.0991,4.9899,-2.0991c1.5177,0,3.1987,0.6792,4.6026,1.7888l0.3761,0.332v-2.9366c0,-0.1376,0.2121,-0.2103,0.3145,-0.1184l1.4945,1.316c0.0336,0.0302,0.0528,0.0732,0.0528,0.1184v4.7887c0,0.0954,-0.0773,0.1728,-0.1728,0.1728l-4.6631,0.0134c-0.0347,0,-0.0683,-0.0707,-0.0949,-0.0931l-1.77,-1.5088c-0.1051,-0.0885,-0.0425,-0.26,0.0949,-0.2599l3.3475,0.001l-1.1683,-0.8128l-0.0032,-0.0018c-0.741,-0.4386,-1.591,-0.6704,-2.458,-0.6704c-1.3201,0,-2.556,0.5333,-3.4799,1.5017c-1.7825,1.8685,-1.7825,4.7958,0,6.6643c0.9489,0.9946,2.1852,1.5423,3.4813,1.5423c1.2521,0,2.46,-0.5183,3.4011,-1.4593c0.6497,-0.6498,1.0987,-1.4864,1.2985,-2.4195c0.0272,-0.127,0.142,-0.2193,0.2729,-0.2193c0.0127,0,0.0255,0.0009,0.0381,0.0026l0.2369,0.0321c0.4138,0.056,0.9511,0.1287,1.311,0.1786c0.0488,0.0068,0.096,0.0246,0.1339,0.056c0.0863,0.0713,0.1226,0.1761,0.102,0.2803c-0.2656,1.3405,-0.9203,2.5632,-1.8932,3.536C28.7066,31.2795,26.9681,32,25.1197,32z" fill="#529FBF"/>
    </g>
  </g>
</svg>
