<?xml version="1.0" encoding="UTF-8"?>
<!DOCTYPE svg PUBLIC "-//W3C//DTD SVG 1.1//EN" "http://www.w3.org/Graphics/SVG/1.1/DTD/svg11.dtd">
<svg version="1.1" id="Layer_1" xmlns="http://www.w3.org/2000/svg" xmlns:xlink="http://www.w3.org/1999/xlink" x="0px" y="0px" width="32px" height="32px" viewBox="0 0 32 32" enable-background="new 0 0 32 32" xml:space="preserve">
  <g id="icon">
    <path d="M28.8,29H3.2c-0.6627,0,-1.2,-0.5373,-1.2,-1.2L1,14.2c0,-0.6627,0.5373,-1.2,1.2,-1.2h27.6c0.6627,0,1.2,0.5373,1.2,1.2l-1,13.6C30,28.4627,29.4627,29,28.8,29z" fill-rule="evenodd" fill="#E9B664"/>
    <path d="M29,12H3V5.2c0,-0.6627,0.5373,-1.2,1.2,-1.2h8.9716c0.5304,0,1.0391,0.2107,1.4142,0.5858l1.8284,1.8284C16.7893,6.7893,17.298,7,17.8284,7H27.8c0.6627,0,1.2,0.5373,1.2,1.2V12z" fill-rule="evenodd" fill="#96762C"/>
  </g>
</svg>
