<?xml version="1.0" encoding="UTF-8"?>
<!DOCTYPE svg PUBLIC "-//W3C//DTD SVG 1.1//EN" "http://www.w3.org/Graphics/SVG/1.1/DTD/svg11.dtd">
<svg version="1.1" id="Layer_1" xmlns="http://www.w3.org/2000/svg" xmlns:xlink="http://www.w3.org/1999/xlink" x="0px" y="0px" width="32px" height="32px" viewBox="0 0 32 32" enable-background="new 0 0 32 32" xml:space="preserve">
  <g id="icon">
    <path d="M16.0011,1C7.7162,1,1,7.7162,1,16.0011c0,8.2849,6.7162,15.0011,15.0011,15.0011c8.2849,0,15.0011,-6.7162,15.0011,-15.0011C31.0022,7.7162,24.286,1,16.0011,1zM16.0011,29.4305c-7.4168,0,-13.4293,-6.0125,-13.4293,-13.4293c0,-7.4168,6.0125,-13.4293,13.4293,-13.4293c7.4168,0,13.4293,6.0125,13.4293,13.4293C29.4305,23.4179,23.4179,29.4305,16.0011,29.4305z" fill-rule="evenodd" fill="#797979"/>
    <path d="M16.0012,2.5718c7.4168,0,13.4293,6.0125,13.4293,13.4293c0,7.4168,-6.0125,13.4293,-13.4293,13.4293c-7.4168,0,-13.4293,-6.0125,-13.4293,-13.4293C2.5718,8.5843,8.5843,2.5718,16.0012,2.5718z" fill-rule="evenodd" fill="#FFFFFF"/>
    <path d="M14.6688,15.3222c-0.0047,1.1634,0.1251,1.6954,1.2885,1.7001c1.1634,0.0047,1.1809,-0.6479,1.1856,-1.8113C17.1476,14.0476,16.7538,4.103,16,4.1C15.2462,4.097,14.6735,14.1588,14.6688,15.3222z" fill-rule="evenodd" fill="#3E79B4"/>
    <path d="M17.0816,14.6805c-1.5199,-0.0061,-2.1498,0.1309,-2.1545,1.2944c-0.0047,1.1634,0.3903,1.2189,1.9103,1.2251c1.5199,0.0061,10.0596,-0.4238,10.0626,-1.1776C26.903,15.2685,18.6015,14.6866,17.0816,14.6805z" fill-rule="evenodd" fill="#3E79B4"/>
    <path d="M16.5,27.5218c0,0.2641,-0.2141,0.4782,-0.4782,0.4782h-0.1436c-0.2641,0,-0.4782,-0.2141,-0.4782,-0.4782v-3.0436c0,-0.2641,0.2141,-0.4782,0.4782,-0.4782h0.1436c0.2641,0,0.4782,0.2141,0.4782,0.4782V27.5218zM24.5606,7.4723l-0.1562,-0.156c-0.0898,-0.0899,-0.2099,-0.1394,-0.3381,-0.1394c-0.1282,0,-0.2483,0.0495,-0.3381,0.1393l-2.133,2.1329c-0.1864,0.1864,-0.1864,0.4898,0,0.6763l0.1561,0.1561c0.1795,0.1795,0.4966,0.1796,0.6764,0l2.133,-2.133C24.747,7.9622,24.747,7.6588,24.5606,7.4723zM10.3606,21.8723l-0.1562,-0.156c-0.0898,-0.0899,-0.2099,-0.1394,-0.3381,-0.1394s-0.2483,0.0495,-0.3381,0.1393l-2.133,2.1329c-0.1864,0.1864,-0.1864,0.4898,0,0.6763l0.1561,0.1561c0.1795,0.1795,0.4966,0.1796,0.6764,0l2.133,-2.133C10.547,22.3622,10.547,22.0588,10.3606,21.8723zM23.581,24.6947c0.1796,0.1796,0.4966,0.1796,0.6762,0l0.1562,-0.1562c0.1864,-0.1864,0.1864,-0.4898,0,-0.6762l-2.133,-2.133c-0.0898,-0.0898,-0.2099,-0.1392,-0.3381,-0.1392c-0.1283,0,-0.2484,0.0494,-0.3383,0.1392l-0.1561,0.1561c-0.1864,0.1865,-0.1864,0.4898,0,0.6764L23.581,24.6947zM8,15.9782c0,-0.2641,-0.2141,-0.4782,-0.4782,-0.4782H4.4782c-0.2641,0,-0.4782,0.2141,-0.4782,0.4782v0.1436c0,0.2641,0.2141,0.4782,0.4782,0.4782h3.0436c0.2641,0,0.4782,-0.2141,0.4782,-0.4782V15.9782zM8.302,7.4566c-0.0898,-0.0898,-0.2099,-0.1393,-0.3381,-0.1393c-0.1282,0,-0.2483,0.0495,-0.3382,0.1393l-0.1561,0.1561c-0.1864,0.1864,-0.1864,0.4898,0,0.6763l2.133,2.1329c0.1798,0.1795,0.4966,0.1797,0.6763,0l0.1561,-0.1561c0.1864,-0.1864,0.1864,-0.4898,0,-0.6763L8.302,7.4566z" fill="#B4B4B5"/>
  </g>
</svg>
