<?xml version="1.0" encoding="UTF-8"?>
<!DOCTYPE svg PUBLIC "-//W3C//DTD SVG 1.1//EN" "http://www.w3.org/Graphics/SVG/1.1/DTD/svg11.dtd">
<svg version="1.1" id="Layer_1" xmlns="http://www.w3.org/2000/svg" xmlns:xlink="http://www.w3.org/1999/xlink" x="0px" y="0px" width="32px" height="32px" viewBox="0 0 32 32" enable-background="new 0 0 32 32" xml:space="preserve">
  <g id="icon">
    <path d="M1.601,25.519l13.682,-13.332c-1.179,-3.697,-0.907,-6.285,1.099,-8.354c1.593,-1.644,5.324,-3.687,9.863,-2.454c0.062,0.027,0.138,0.073,0.212,0.114l-6.08,6.058c-0.849,0.846,-0.635,2.432,0.499,3.562c1.134,1.13,2.067,1.579,3.394,0.257l6.145,-6.123c0.042,0.065,0.088,0.134,0.114,0.184c1.375,4.34,-0.507,8.194,-2.412,10.093c-1.453,1.448,-4.605,2.473,-8.219,1.285L6.478,30.376c-0.834,0.831,-2.187,0.831,-3.021,0L1.601,28.53C0.767,27.698,0.767,26.35,1.601,25.519zM4.111,27.915c0.594,0.592,1.557,0.592,2.15,0c0.594,-0.592,0.594,-1.551,0,-2.143c-0.594,-0.592,-1.557,-0.592,-2.15,0C3.517,26.364,3.517,27.324,4.111,27.915z" fill-rule="evenodd" fill="#3E79B4"/>
  </g>
</svg>
