<?xml version="1.0" encoding="UTF-8"?>
<!DOCTYPE svg PUBLIC "-//W3C//DTD SVG 1.1//EN" "http://www.w3.org/Graphics/SVG/1.1/DTD/svg11.dtd">
<svg version="1.1" id="Layer_1" xmlns="http://www.w3.org/2000/svg" xmlns:xlink="http://www.w3.org/1999/xlink" x="0px" y="0px" width="32px" height="32px" viewBox="0 0 32 32" enable-background="new 0 0 32 32" xml:space="preserve">
  <g id="main">
    <clipPath id="clip_mask">
      <path d="M16.5017,31.5812c-0.6414,-0.6453,-0.6414,-1.6954,0.0001,-2.3408l3.4176,-3.3897c-0.5377,-1.1421,-0.758,-2.4278,-0.6239,-3.6959c0.1654,-1.5638,0.8667,-3.0392,1.9749,-4.1544c1.3008,-1.3091,3.03,-2.03,4.869,-2.03c1.8347,0,3.5585,0.7181,4.8541,2.0219c0.3942,0.3967,0.7286,0.8311,1.0064,1.2907V0H0v32h16.9179L16.5017,31.5812z" fill-rule="evenodd"/>
    </clipPath>
    <g id="icon" clip-path="url(#clip_mask)">
      <g id="transformed_icon" transform="translate(-1 -1)">
        <path d="M28.8,29H3.2c-0.6627,0,-1.2,-0.5373,-1.2,-1.2L1,14.2c0,-0.6627,0.5373,-1.2,1.2,-1.2h27.6c0.6627,0,1.2,0.5373,1.2,1.2l-1,13.6C30,28.4627,29.4627,29,28.8,29z" fill-rule="evenodd" fill="#E9B664"/>
        <path d="M29,12H3V5.2c0,-0.6627,0.5373,-1.2,1.2,-1.2h8.9716c0.5304,0,1.0391,0.2107,1.4142,0.5858l1.8284,1.8284C16.7893,6.7893,17.298,7,17.8284,7H27.8c0.6627,0,1.2,0.5373,1.2,1.2V12z" fill-rule="evenodd" fill="#96762C"/>
      </g>
    </g>
    <g id="overlay">
      <path d="M30.2842,18.697c-2.2909,-2.3055,-6.0089,-2.3019,-8.3044,0.0082c-1.9787,1.9912,-2.2528,5.0455,-0.8238,7.3275l-3.9449,3.9127c-0.2555,0.2571,-0.2555,0.6739,0,0.9309l0.9251,0.9309c0.2554,0.2571,0.6696,0.2571,0.9251,0l3.9475,-3.9153c2.2661,1.4282,5.2927,1.1495,7.2674,-0.8378C32.5715,24.7441,32.5751,21.0025,30.2842,18.697zM28.843,25.6448c-1.5129,1.5225,-3.9658,1.5225,-5.4787,0c-1.5129,-1.5225,-1.5129,-3.991,0,-5.5135c1.5129,-1.5225,3.9658,-1.5225,5.4787,0C30.3559,21.6538,30.3559,24.1223,28.843,25.6448z" fill-rule="evenodd" fill="#3E79B4"/>
    </g>
  </g>
</svg>
