<?xml version="1.0" encoding="UTF-8"?>
<!DOCTYPE svg PUBLIC "-//W3C//DTD SVG 1.1//EN" "http://www.w3.org/Graphics/SVG/1.1/DTD/svg11.dtd">
<svg version="1.1" id="Layer_1" xmlns="http://www.w3.org/2000/svg" xmlns:xlink="http://www.w3.org/1999/xlink" x="0px" y="0px" width="32px" height="32px" viewBox="0 0 32 32" enable-background="new 0 0 32 32" xml:space="preserve">
  <g id="icon">
    <path d="M9.05,10h-6.1c-0.525,0,-0.95,-0.425,-0.95,-0.95v-6.1c0,-0.525,0.425,-0.95,0.95,-0.95h6.1c0.525,0,0.95,0.425,0.95,0.95v6.1C10,9.575,9.575,10,9.05,10zM20,9.05v-6.1c0,-0.525,-0.425,-0.95,-0.95,-0.95h-6.1c-0.525,0,-0.95,0.425,-0.95,0.95v6.1c0,0.525,0.425,0.95,0.95,0.95h6.1C19.575,10,20,9.575,20,9.05zM30,9.05v-6.1c0,-0.525,-0.425,-0.95,-0.95,-0.95h-6.1c-0.525,0,-0.95,0.425,-0.95,0.95v6.1c0,0.525,0.425,0.95,0.95,0.95h6.1C29.575,10,30,9.575,30,9.05zM9.05,20h-6.1c-0.525,0,-0.95,-0.425,-0.95,-0.95v-6.1c0,-0.525,0.425,-0.95,0.95,-0.95h6.1c0.525,0,0.95,0.425,0.95,0.95v6.1C10,19.575,9.575,20,9.05,20zM20,19.05v-6.1c0,-0.525,-0.425,-0.95,-0.95,-0.95h-6.1c-0.525,0,-0.95,0.425,-0.95,0.95v6.1c0,0.525,0.425,0.95,0.95,0.95h6.1C19.575,20,20,19.575,20,19.05zM30,19.05v-6.1c0,-0.525,-0.425,-0.95,-0.95,-0.95h-6.1c-0.525,0,-0.95,0.425,-0.95,0.95v6.1c0,0.525,0.425,0.95,0.95,0.95h6.1C29.575,20,30,19.575,30,19.05zM9.05,30h-6.1c-0.525,0,-0.95,-0.425,-0.95,-0.95v-6.1c0,-0.525,0.425,-0.95,0.95,-0.95h6.1c0.525,0,0.95,0.425,0.95,0.95v6.1C10,29.575,9.575,30,9.05,30zM20,29.05v-6.1c0,-0.525,-0.425,-0.95,-0.95,-0.95h-6.1c-0.525,0,-0.95,0.425,-0.95,0.95v6.1c0,0.525,0.425,0.95,0.95,0.95h6.1C19.575,30,20,29.575,20,29.05zM30,29.05v-6.1c0,-0.525,-0.425,-0.95,-0.95,-0.95h-6.1c-0.525,0,-0.95,0.425,-0.95,0.95v6.1c0,0.525,0.425,0.95,0.95,0.95h6.1C29.575,30,30,29.575,30,29.05z" fill="#3E79B4"/>
  </g>
</svg>
