<?xml version="1.0" encoding="UTF-8"?>
<!DOCTYPE svg PUBLIC "-//W3C//DTD SVG 1.1//EN" "http://www.w3.org/Graphics/SVG/1.1/DTD/svg11.dtd">
<svg version="1.1" id="Layer_1" xmlns="http://www.w3.org/2000/svg" xmlns:xlink="http://www.w3.org/1999/xlink" x="0px" y="0px" width="32px" height="32px" viewBox="0 0 32 32" enable-background="new 0 0 32 32" xml:space="preserve">
  <g id="main">
    <clipPath id="clip_mask">
      <path d="M20.9262,32C18.5189,30.6,16.9,27.9878,16.9,25c0,-4.4735,3.6265,-8.1,8.1,-8.1c2.9878,0,5.6,1.6189,7,4.0262V0L0,0l0,32H20.9262z" fill-rule="evenodd"/>
    </clipPath>
    <g id="icon" clip-path="url(#clip_mask)">
      <g id="transformed_icon" transform="translate(-1 -1)">
        <path d="M15.9463,30.4417c-3.5873,0,-6.944,-1.42,-9.4518,-3.9985c-4.9259,-5.065,-4.9162,-13.3163,0.0217,-18.3935C9.0242,5.4711,12.4,4.051,16.022,4.051c2.8912,0,6.0934,1.2123,8.7678,3.3261L25.6,8.0095V2.4153c0,-0.2622,0.3104,-0.4007,0.5055,-0.2256l2.7939,2.507c0.0641,0.0575,0.1007,0.1395,0.1007,0.2256v8.7486c0,0.1818,-0.1473,0.3291,-0.3291,0.3291H19.841c-0.0661,0,-0.1301,-0.0234,-0.1807,-0.0659l-3.3718,-2.8386c-0.2002,-0.1686,-0.081,-0.4953,0.1808,-0.4952l5.9123,0.0019l-1.7611,-1.2145l-0.006,-0.0035c-1.4116,-0.8355,-3.0308,-1.2771,-4.6824,-1.2771c-2.5148,0,-4.8691,1.0159,-6.6292,2.8606c-3.3957,3.5594,-3.3957,9.1359,0,12.6953c1.8076,1.8946,4.1628,2.938,6.6317,2.938c2.3853,0,4.6863,-0.9873,6.479,-2.7799c1.2377,-1.2378,2.0931,-2.8316,2.4735,-4.609c0.0518,-0.242,0.2705,-0.4177,0.5199,-0.4177c0.0241,0,0.0485,0.0017,0.0726,0.0049l0.4513,0.0611c0.7884,0.1067,1.8118,0.2452,2.4974,0.3403c0.0929,0.0129,0.1829,0.0469,0.2552,0.1066c0.1644,0.1358,0.2336,0.3354,0.1943,0.5339c-0.5061,2.5536,-1.7531,4.8828,-3.6065,6.7359C22.7792,29.0692,19.4676,30.4417,15.9463,30.4417z" fill="#CC4B31"/>
      </g>
    </g>
    <g id="overlay">
      <path d="M29.9518,20.0622c-2.7309,-2.7309,-7.1587,-2.7309,-9.8896,0c-2.7309,2.7309,-2.7309,7.1586,0,9.8896c2.7309,2.7309,7.1586,2.7309,9.8896,0C32.6827,27.2209,32.6827,22.7932,29.9518,20.0622zM21.4832,21.6092c1.6511,-1.6511,4.1877,-1.8747,6.0802,-0.6734l-6.5976,6.5976C19.7924,25.7147,19.8419,23.2505,21.4832,21.6092zM28.4051,28.5311c-1.6427,1.6427,-4.1094,1.691,-5.9285,0.5148l6.5992,-6.5992C30.2801,24.3396,30.0574,26.8788,28.4051,28.5311z" fill-rule="evenodd" fill="#CD4C32"/>
    </g>
  </g>
</svg>
