<?xml version="1.0" encoding="UTF-8"?>
<!DOCTYPE svg PUBLIC "-//W3C//DTD SVG 1.1//EN" "http://www.w3.org/Graphics/SVG/1.1/DTD/svg11.dtd">
<svg version="1.1" id="Layer_1" xmlns="http://www.w3.org/2000/svg" xmlns:xlink="http://www.w3.org/1999/xlink" x="0px" y="0px" width="32px" height="32px" viewBox="0 0 32 32" enable-background="new 0 0 32 32" xml:space="preserve">
  <g id="icon">
    <path d="M12.5254,24.5555l-2.4683,4.8415M15.5,24.5857V28.3M18.5077,24.5825l2.4545,4.8145" fill="none" stroke="#6D6E71" stroke-width="1.2" stroke-linecap="round" stroke-miterlimit="1"/>
    <path d="M27.3,24.5H3.7c-0.66,0,-1.2,-0.54,-1.2,-1.2V4.0137c0,-0.66,0.54,-1.2,1.2,-1.2h23.6c0.66,0,1.2,0.54,1.2,1.2V23.3C28.5,23.96,27.96,24.5,27.3,24.5z" fill="#FFFFFF" stroke="#797979" stroke-width="1" stroke-linecap="round" stroke-miterlimit="1"/>
    <path d="M29.425,5H1.575C1.2574,5,1,4.7426,1,4.425v-1.85c0,-0.3176,0.2574,-0.575,0.575,-0.575h27.85c0.3176,0,0.575,0.2574,0.575,0.575v1.85C30,4.7426,29.7426,5,29.425,5z" fill="#3E79B4"/>
    <path d="M15.5,8.0333c-3.5714,0,-6.4667,2.8952,-6.4667,6.4667c0,3.5714,2.8952,6.4667,6.4667,6.4667s6.4667,-2.8952,6.4667,-6.4667C21.9667,10.9286,19.0714,8.0333,15.5,8.0333zM19.3492,14.9068l-5.5825,2.8974c-0.2961,0.135,-0.6326,-0.0814,-0.6326,-0.4068v-5.7947c0,-0.3254,0.3365,-0.5418,0.6326,-0.4068l5.5825,2.8974C19.698,14.2522,19.698,14.7478,19.3492,14.9068z" fill="#4EA17E"/>
  </g>
</svg>
