<?xml version="1.0" encoding="UTF-8"?>
<!DOCTYPE svg PUBLIC "-//W3C//DTD SVG 1.1//EN" "http://www.w3.org/Graphics/SVG/1.1/DTD/svg11.dtd">
<svg version="1.1" id="Layer_1" xmlns="http://www.w3.org/2000/svg" xmlns:xlink="http://www.w3.org/1999/xlink" x="0px" y="0px" width="32px" height="32px" viewBox="0 0 32 32" enable-background="new 0 0 32 32" xml:space="preserve">
  <g id="icon">
    <path d="M13.8,1H2.2c-0.66,0,-1.2,0.54,-1.2,1.2v11.6c0,0.66,0.54,1.2,1.2,1.2h11.6c0.66,0,1.2,-0.54,1.2,-1.2V2.2C15,1.54,14.46,1,13.8,1zM13,12.3167c0,0.3774,-0.3059,0.6833,-0.6833,0.6833H3.6833c-0.3774,0,-0.6833,-0.3059,-0.6833,-0.6833V3.6833C3,3.3059,3.3059,3,3.6833,3h8.6333c0.3774,0,0.6833,0.3059,0.6833,0.6833V12.3167z" fill="#3E79B4"/>
    <rect x="3.5" y="3.5" width="9" height="9" fill="#C2D3E6" stroke="#FFFFFF" stroke-width="1" stroke-miterlimit="1" stroke-linejoin="round"/>
    <path d="M29.8,1H18.2c-0.66,0,-1.2,0.54,-1.2,1.2v11.6c0,0.66,0.54,1.2,1.2,1.2h11.6c0.66,0,1.2,-0.54,1.2,-1.2V2.2C31,1.54,30.46,1,29.8,1zM29,12.3167c0,0.3774,-0.3059,0.6833,-0.6833,0.6833h-8.6333c-0.3774,0,-0.6833,-0.3059,-0.6833,-0.6833V3.6833c0,-0.3774,0.3059,-0.6833,0.6833,-0.6833h8.6333c0.3774,0,0.6833,0.3059,0.6833,0.6833V12.3167z" fill="#3E79B4"/>
    <rect x="19.5" y="3.5" width="9" height="9" fill="#C2D3E6" stroke="#FFFFFF" stroke-width="1" stroke-miterlimit="1" stroke-linejoin="round"/>
    <path d="M29.8,17H18.2c-0.66,0,-1.2,0.54,-1.2,1.2v11.6c0,0.66,0.54,1.2,1.2,1.2h11.6c0.66,0,1.2,-0.54,1.2,-1.2V18.2C31,17.54,30.46,17,29.8,17zM29,28.3167c0,0.3774,-0.3059,0.6833,-0.6833,0.6833h-8.6333c-0.3774,0,-0.6833,-0.3059,-0.6833,-0.6833v-8.6333c0,-0.3774,0.3059,-0.6833,0.6833,-0.6833h8.6333c0.3774,0,0.6833,0.3059,0.6833,0.6833V28.3167z" fill="#3E79B4"/>
    <rect x="19.5" y="19.5" width="9" height="9" fill="#C2D3E6" stroke="#FFFFFF" stroke-width="1" stroke-miterlimit="1" stroke-linejoin="round"/>
    <path d="M13.8,17H2.2c-0.66,0,-1.2,0.54,-1.2,1.2v11.6c0,0.66,0.54,1.2,1.2,1.2h11.6c0.66,0,1.2,-0.54,1.2,-1.2V18.2C15,17.54,14.46,17,13.8,17zM13,28.3167c0,0.3774,-0.3059,0.6833,-0.6833,0.6833H3.6833c-0.3774,0,-0.6833,-0.3059,-0.6833,-0.6833v-8.6333c0,-0.3774,0.3059,-0.6833,0.6833,-0.6833h8.6333c0.3774,0,0.6833,0.3059,0.6833,0.6833V28.3167z" fill="#3E79B4"/>
    <rect x="3.5" y="19.5" width="9" height="9" fill="#C2D3E6" stroke="#FFFFFF" stroke-width="1" stroke-miterlimit="1" stroke-linejoin="round"/>
  </g>
</svg>
