<?xml version="1.0" encoding="UTF-8"?>
<!DOCTYPE svg PUBLIC "-//W3C//DTD SVG 1.1//EN" "http://www.w3.org/Graphics/SVG/1.1/DTD/svg11.dtd">
<svg version="1.1" id="Layer_1" xmlns="http://www.w3.org/2000/svg" xmlns:xlink="http://www.w3.org/1999/xlink" x="0px" y="0px" width="32px" height="32px" viewBox="0 0 32 32" enable-background="new 0 0 32 32" xml:space="preserve">
  <g id="main">
    <clipPath id="clip_mask">
      <path d="M20.9262,32C18.5189,30.6,16.9,27.9878,16.9,25c0,-4.4735,3.6265,-8.1,8.1,-8.1c2.9878,0,5.6,1.6189,7,4.0262V0L0,0l0,32H20.9262z" fill-rule="evenodd"/>
    </clipPath>
    <g id="icon" clip-path="url(#clip_mask)">
      <g id="transformed_icon" transform="translate(-1 -1)">
        <g>
          <path d="M26.6,30.5H5.4c-0.6351,0,-0.9,-0.2594,-0.9,-0.9V2.4c0,-0.6407,0.2649,-0.9,0.9,-0.9c0,0,13.6626,0,13.9,0c0.2375,0,0.5495,0.0496,0.8997,0.3998C20.499,2.199,25.6164,7.3164,27.1,8.8c0.2527,0.2527,0.4,0.55,0.4,1c0,0.3125,0,19.8,0,19.8C27.5,30.2406,27.2351,30.5,26.6,30.5z" fill-rule="evenodd" fill="#FFFFFF"/>
          <path d="M27.4535,8.4464l-6.9001,-6.9002C20.1858,1.1787,19.7758,1,19.3,1H5.4c-0.9159,0,-1.4,0.4841,-1.4,1.4v27.2c0,0.9159,0.4841,1.4,1.4,1.4h21.2c0.9159,0,1.4,-0.4841,1.4,-1.4V9.8C28,9.2494,27.8264,8.8192,27.4535,8.4464zM20,2.4071L26.5929,9H20.3c-0.1654,0,-0.3,-0.1346,-0.3,-0.3V2.4071zM26.6,30H5.4c-0.3626,0,-0.4,-0.0374,-0.4,-0.4V2.4c0,-0.3626,0.0374,-0.4,0.4,-0.4h13.6v6.7c0,0.7168,0.5832,1.3,1.3,1.3h6.7v19.6C27,29.9626,26.9626,30,26.6,30z" fill="#6D6E71"/>
        </g>
        <path d="M16.5,7H7.5c-0.2761,0,-0.5,-0.2239,-0.5,-0.5s0.2239,-0.5,0.5,-0.5h9c0.2761,0,0.5,0.2239,0.5,0.5S16.7761,7,16.5,7zM16.5,9H7.5c-0.2761,0,-0.5,-0.2239,-0.5,-0.5s0.2239,-0.5,0.5,-0.5h9c0.2761,0,0.5,0.2239,0.5,0.5S16.7761,9,16.5,9zM16.5,11H7.5c-0.2761,0,-0.5,-0.2239,-0.5,-0.5s0.2239,-0.5,0.5,-0.5h9c0.2761,0,0.5,0.2239,0.5,0.5S16.7761,11,16.5,11zM16.5,13H7.5c-0.2761,0,-0.5,-0.2239,-0.5,-0.5s0.2239,-0.5,0.5,-0.5h9c0.2761,0,0.5,0.2239,0.5,0.5S16.7761,13,16.5,13zM24.5,15H7.5c-0.2761,0,-0.5,-0.2239,-0.5,-0.5s0.2239,-0.5,0.5,-0.5h17c0.2761,0,0.5,0.2239,0.5,0.5S24.7761,15,24.5,15zM24.5,17H7.5c-0.2761,0,-0.5,-0.2239,-0.5,-0.5s0.2239,-0.5,0.5,-0.5h17c0.2761,0,0.5,0.2239,0.5,0.5S24.7761,17,24.5,17zM24.5,19H7.5c-0.2761,0,-0.5,-0.2239,-0.5,-0.5s0.2239,-0.5,0.5,-0.5h17c0.2761,0,0.5,0.2239,0.5,0.5S24.7761,19,24.5,19zM24.5,21H7.5c-0.2761,0,-0.5,-0.2239,-0.5,-0.5s0.2239,-0.5,0.5,-0.5h17c0.2761,0,0.5,0.2239,0.5,0.5S24.7761,21,24.5,21z" fill="#B4B4B5"/>
        <rect x="6" y="24" width="20" height="5" fill="#E78155"/>
      </g>
    </g>
    <g id="overlay">
      <path d="M29.9518,20.0622c-2.7309,-2.7309,-7.1587,-2.7309,-9.8896,0c-2.7309,2.7309,-2.7309,7.1586,0,9.8896c2.7309,2.7309,7.1586,2.7309,9.8896,0C32.6827,27.2209,32.6827,22.7932,29.9518,20.0622zM21.4832,21.6092c1.6511,-1.6511,4.1877,-1.8747,6.0802,-0.6734l-6.5976,6.5976C19.7924,25.7147,19.8419,23.2505,21.4832,21.6092zM28.4051,28.5311c-1.6427,1.6427,-4.1094,1.691,-5.9285,0.5148l6.5992,-6.5992C30.2801,24.3396,30.0574,26.8788,28.4051,28.5311z" fill-rule="evenodd" fill="#CD4C32"/>
    </g>
  </g>
</svg>
