<?xml version="1.0" encoding="UTF-8"?>
<!DOCTYPE svg PUBLIC "-//W3C//DTD SVG 1.1//EN" "http://www.w3.org/Graphics/SVG/1.1/DTD/svg11.dtd">
<svg version="1.1" id="Layer_1" xmlns="http://www.w3.org/2000/svg" xmlns:xlink="http://www.w3.org/1999/xlink" x="0px" y="0px" width="32px" height="32px" viewBox="0 0 32 32" enable-background="new 0 0 32 32" xml:space="preserve">
  <g id="main">
    <clipPath id="clip_mask">
      <path d="M22.1277,31.4732l-0.012,-0.0327l-3.9343,-11.3363c-0.138,-0.3893,-0.3727,-1.0513,0.0207,-1.608c0.2184,-0.3091,0.5732,-0.4864,0.9735,-0.4864c0.2472,0,0.5108,0.0623,0.9062,0.2146l11.3589,3.895c0.122,0.0432,0.3364,0.1197,0.5593,0.2477V0H0v32h22.3907C22.2964,31.8531,22.2075,31.6798,22.1277,31.4732z" fill-rule="evenodd"/>
    </clipPath>
    <g id="icon" clip-path="url(#clip_mask)">
      <g id="transformed_icon" transform="translate(-1 -1)">
        <path d="M26.6,14.3h-8.836V5.464c0,-0.221,-0.182,-0.4,-0.407,-0.4h-2.714c-0.225,0,-0.407,0.179,-0.407,0.4V14.3H5.4c-0.221,0,-0.4,0.182,-0.4,0.407v2.714c0,0.225,0.179,0.407,0.4,0.407h8.836v8.836c0,0.221,0.182,0.4,0.407,0.4h2.714c0.225,0,0.407,-0.179,0.407,-0.4v-8.836H26.6c0.221,0,0.4,-0.182,0.4,-0.407v-2.714C27,14.482,26.821,14.3,26.6,14.3z" fill="#6D6E71"/>
      </g>
    </g>
    <g id="overlay">
      <path d="M31.1164,23.0652L19.7393,19.164c-0.7781,-0.302,-0.8981,-0.192,-0.6131,0.6123l3.9343,11.3364c0.324,0.8383,0.7476,0.8402,1.2737,-0.0174l1.9822,-3.2436l4.1129,4.0748c0.4253,0.4248,1.9208,-1.113,1.4955,-1.5378l-4.0726,-4.071l3.247,-1.98C32.0318,23.7335,32.0318,23.3892,31.1164,23.0652z" fill-rule="evenodd" fill="#797979"/>
    </g>
  </g>
</svg>
